<?xml version="1.0" encoding="utf-8"?>
<!-- Generator: Adobe Illustrator 22.1.0, SVG Export Plug-In . SVG Version: 6.00 Build 0)  -->
<svg version="1.1" id="Layer_1" xmlns="http://www.w3.org/2000/svg" xmlns:xlink="http://www.w3.org/1999/xlink" x="0px" y="0px"
	 viewBox="0 0 402.8 228.6" style="enable-background:new 0 0 402.8 228.6;" xml:space="preserve">
<style type="text/css">
	.st0{fill:#C44D4F;}
	.st1{fill:#E3E3E3;}
	.st2{fill:#4A3D36;}
	.st3{fill:#EEE2CA;}
	.st4{fill:#EFC52F;}
	.st5{fill:#D7D1B5;}
	.st6{fill:#B9CFEB;}
	.st7{fill:#BEE2F7;}
	.st8{fill:#9AB239;}
	.st9{fill:#859433;}
	.st10{fill:#FFFFFF;}
	.st11{fill:#2B2A2A;}
</style>
<title>ASpropAsset 2ciudad</title>
<g id="Layer_2_1_">
	<g id="Layer_1-2">
		<g id="_Group_">
			<path id="_Path_" class="st0" d="M402.8,185.4c0-2.7-2.2-4.8-4.9-4.8c-0.1,0-0.1,0-0.2,0v-29.4c2.8-0.1,5-2.5,4.8-5.3
				c-0.1-2.6-2.2-4.7-4.8-4.8H312c-2.8,0.1-5,2.5-4.8,5.3c0.1,2.6,2.2,4.7,4.8,4.8v29.4c-2.7-0.1-4.9,1.9-5,4.6
				c-0.1,2.7,1.9,4.9,4.6,5c0.1,0,0.3,0,0.4,0v30c-2.6-0.1-4.9,1.9-5,4.6c-0.1,2.6,1.9,4.9,4.6,5c0.1,0,0.3,0,0.4,0h85.7
				c2.6,0.1,4.9-1.9,5-4.6c0.1-2.6-1.9-4.9-4.6-5c-0.1,0-0.3,0-0.4,0v-30c2.7,0.1,4.9-2,5-4.7C402.7,185.5,402.7,185.4,402.8,185.4z
				"/>
			<rect id="_Rectangle_" x="75.7" y="106.4" class="st1" width="62.8" height="123.9"/>
			<polygon id="_Path_2" class="st2" points="219.7,127.7 244.7,94.2 269.6,127.7 			"/>
			<rect id="_Rectangle_2" x="219.7" y="132" class="st3" width="49.9" height="97.7"/>
			<rect id="_Rectangle_3" x="141.2" y="159.7" class="st4" width="74" height="69.7"/>
			<rect id="_Rectangle_4" x="26.6" y="181.6" class="st5" width="43.6" height="47.7"/>
			<polygon id="_Path_3" class="st2" points="41.7,135.4 31,135.4 36.3,124 41.7,112.6 47,124 52.3,135.4 			"/>
			<path id="_Path_4" class="st6" d="M63,60.7c-0.1-5-4.2-8.9-9.2-8.8c-5,0.1-8.9,4.2-8.8,9.2c-0.9-0.3-1.8-0.4-2.7-0.4
				c-5.1-0.2-9.3,3.8-9.5,8.9c-0.2,5.1,3.8,9.3,8.9,9.5c0.2,0,0.4,0,0.6,0h20.2c5.1,0.1,9.3-3.9,9.4-8.9
				C72.1,65.1,68.1,60.9,63,60.7z"/>
			<path id="_Path_5" class="st6" d="M275.4,29.5c0.6-4.9,5-8.5,10-7.9c4.3,0.5,7.7,4,8,8.3c0.9-0.3,1.8-0.4,2.7-0.4
				c5.1,0.2,9,4.4,8.9,9.5c-0.2,4.8-4,8.7-8.9,8.9h-20.2c-5.1,0.1-9.3-3.9-9.4-9S270.4,29.6,275.4,29.5L275.4,29.5z"/>
			<rect id="_Rectangle_5" x="318" y="152.3" class="st6" width="17.9" height="26.2"/>
			<rect id="_Rectangle_6" x="345.3" y="152.3" class="st6" width="17.9" height="26.2"/>
			<rect id="_Rectangle_7" x="372.7" y="152.3" class="st6" width="17.9" height="26.2"/>
			<rect id="_Rectangle_8" x="318" y="191.2" class="st6" width="17.9" height="26.2"/>
			<rect id="_Rectangle_9" x="345.3" y="191.2" class="st6" width="17.9" height="26.2"/>
			<rect id="_Rectangle_10" x="372.7" y="191.2" class="st6" width="17.9" height="26.2"/>
			<rect id="_Rectangle_11" x="227.9" y="162.8" class="st6" width="10.7" height="13"/>
			<rect id="_Rectangle_12" x="247.6" y="162.8" class="st6" width="10.7" height="13"/>
			<rect id="_Rectangle_13" x="227.9" y="141.7" class="st6" width="10.7" height="13"/>
			<rect id="_Rectangle_14" x="247.6" y="141.7" class="st6" width="10.7" height="13"/>
			<rect id="_Rectangle_15" x="227.9" y="183.9" class="st6" width="10.7" height="13"/>
			<rect id="_Rectangle_16" x="247.6" y="183.9" class="st6" width="10.7" height="13"/>
			<path id="_Path_6" class="st7" d="M243.1,207.5c-3.6,0-6.6,2.9-6.6,6.6l0,0v15.1h13.1V214C249.6,210.4,246.7,207.5,243.1,207.5z"
				/>
			<path id="_Path_7" class="st6" d="M86.1,125.9c-3,0-5.4,2.4-5.4,5.4c0,0,0,0,0,0v10.8h10.8v-10.8
				C91.5,128.3,89.1,125.9,86.1,125.9C86.1,125.9,86.1,125.9,86.1,125.9z"/>
			<path id="_Path_8" class="st6" d="M104.8,125.9c-3,0-5.4,2.4-5.4,5.4l0,0v10.8h10.8v-10.8C110.2,128.3,107.7,125.9,104.8,125.9z"
				/>
			<path id="_Path_9" class="st6" d="M123.4,125.9c-3,0-5.4,2.4-5.4,5.4c0,0,0,0,0,0v10.8h10.8v-10.8
				C128.8,128.3,126.4,125.9,123.4,125.9C123.4,125.9,123.4,125.9,123.4,125.9z"/>
			<path id="_Path_10" class="st6" d="M86.1,150.4c-3,0-5.4,2.4-5.4,5.4c0,0,0,0,0,0v10.8h10.8v-10.8
				C91.5,152.8,89.1,150.4,86.1,150.4C86.1,150.4,86.1,150.4,86.1,150.4z"/>
			<path id="_Path_11" class="st6" d="M104.8,150.4c-3,0-5.4,2.4-5.4,5.4v10.8h10.8v-10.8C110.2,152.8,107.7,150.4,104.8,150.4z"/>
			<path id="_Path_12" class="st6" d="M123.4,150.4c-3,0-5.4,2.4-5.4,5.4c0,0,0,0,0,0v10.8h10.8v-10.8
				C128.8,152.8,126.4,150.4,123.4,150.4C123.4,150.4,123.4,150.4,123.4,150.4z"/>
			<path id="_Path_13" class="st6" d="M86.1,174.9c-3,0-5.4,2.4-5.4,5.4c0,0,0,0,0,0v10.8h10.8v-10.8
				C91.5,177.3,89.1,174.9,86.1,174.9C86.1,174.9,86.1,174.9,86.1,174.9z"/>
			<path id="_Path_14" class="st6" d="M104.8,174.9c-3,0-5.4,2.4-5.4,5.4v10.8h10.8v-10.8C110.2,177.3,107.7,174.9,104.8,174.9z"/>
			<path id="_Path_15" class="st6" d="M123.4,174.9c-3,0-5.4,2.4-5.4,5.4c0,0,0,0,0,0v10.8h10.8v-10.8
				C128.8,177.3,126.4,174.9,123.4,174.9C123.4,174.9,123.4,174.9,123.4,174.9z"/>
			<rect id="_Rectangle_17" x="149.1" y="194.8" class="st6" width="11.9" height="33.8"/>
			<rect id="_Rectangle_18" x="171.3" y="194.8" class="st6" width="11.9" height="33.8"/>
			<rect id="_Rectangle_19" x="193.4" y="194.8" class="st6" width="11.9" height="33.8"/>
			<g id="_Group_2">
				<path id="_Path_16" class="st8" d="M11.9,147.6c-4.8,0.5-11,37.7-8.4,47.7c2.2,8.7,8.4,10.3,8.4,10.3s6.2-1.6,8.4-10.3
					C22.9,185.3,16.6,148.1,11.9,147.6z"/>
				<path id="_Path_17" class="st8" d="M11.8,147.6L11.8,147.6z"/>
			</g>
			<path id="_Path_18" class="st0" d="M119.2,21.9L119.2,21.9c1.7-5.1-1.1-10.7-6.2-12.4c-5.1-1.7-10.7,1.1-12.4,6.2
				c-0.7,2-0.7,4.2,0,6.2l0,0c0.2,0.6,0.5,1.2,0.8,1.8l5.9,10.5h5.1l5.9-10.5C118.7,23.1,119,22.5,119.2,21.9z"/>
			<rect id="_Rectangle_20" x="107.8" y="36.3" class="st0" width="4.3" height="4.3"/>
			<circle id="_Path_19" class="st4" cx="167.5" cy="54" r="13.1"/>
			<polygon id="_Path_20" class="st2" points="26.6,180.6 48.4,151.3 70.3,180.6 			"/>
			<g id="_Group_3">
				<path id="_Path_21" class="st8" d="M294.5,162.7c-3.8,0.4-8.7,29.9-6.7,37.7c1.8,6.9,6.7,8.2,6.7,8.2s4.9-1.3,6.7-8.2
					C303.2,192.6,298.3,163.1,294.5,162.7z"/>
				<path id="_Path_22" class="st8" d="M294.5,162.7L294.5,162.7z"/>
				<circle id="_Path_23" class="st9" cx="280" cy="215.1" r="8.9"/>
			</g>
			<g id="_Group_4">
				<path id="_Compound_Path_" d="M61.4,77.4H41.2c-5.6,0-10.1-4.5-10.1-10.1c0-5.6,4.5-10.1,10.1-10.1c0.6,0,1.3,0.1,1.9,0.2
					c1.2-5.4,6.5-8.8,11.9-7.6c3.8,0.8,6.8,3.8,7.6,7.5c5.6,0.7,9.5,5.8,8.8,11.3C70.7,73.6,66.4,77.4,61.4,77.4z M41.2,59.1
					c-4.5,0-8.2,3.7-8.2,8.2c0,4.5,3.7,8.2,8.2,8.2h20.2c4.5,0.1,8.3-3.5,8.4-8c0.1-4.5-3.5-8.3-8-8.4h-0.8l-0.1-0.8
					c-0.7-4.4-4.8-7.4-9.2-6.8c-3.6,0.6-6.4,3.5-6.8,7.1l-0.1,1.2l-1.1-0.3C42.8,59.2,42,59.1,41.2,59.1z"/>
			</g>
			<g id="_Group_5">
				<path id="_Compound_Path_2" d="M294.8,46.2h-20.2c-5.6-0.1-10.1-4.7-10-10.3c0.1-5,3.8-9.2,8.7-9.9c1.1-4.5,5.1-7.7,9.8-7.8
					c4.7,0,8.8,3.2,9.8,7.8c0.6-0.1,1.2-0.2,1.9-0.2c5.6,0,10.1,4.5,10.1,10.1C305,41.6,300.5,46.2,294.8,46.2L294.8,46.2z
					 M283.2,20.2c-4,0-7.4,2.9-8,6.9l-0.1,0.8h-0.8c-4.5,0.1-8.1,3.9-8,8.4s3.9,8.1,8.4,8h20.2c4.5,0,8.2-3.7,8.2-8.2
					c0-4.5-3.7-8.2-8.2-8.2c0,0,0,0,0,0c-0.8,0-1.6,0.1-2.4,0.4l-1.1,0.3l-0.1-1.2C290.7,23.3,287.3,20.2,283.2,20.2L283.2,20.2z"/>
			</g>
			<g id="_Group_6">
				<path id="_Compound_Path_3" d="M394.9,228.6h-85.7c-3.2,0.1-5.9-2.4-6-5.6c0-0.1,0-0.1,0-0.2c0-2.9,2.2-5.4,5.1-5.7v-28.2
					c-3.2-0.4-5.4-3.3-5-6.4c0.3-2.6,2.4-4.7,5-5v-27.6c-3.3-0.3-5.8-3.2-5.5-6.5s3.2-5.8,6.5-5.5H395c3.3-0.3,6.2,2.2,6.5,5.5
					s-2.2,6.2-5.5,6.5v27.6c3.2,0.4,5.4,3.3,5,6.4c-0.3,2.6-2.4,4.7-5,5v28.2c2.9,0.3,5.1,2.8,5.1,5.7c0,3.2-2.6,5.8-5.8,5.8
					C395.2,228.6,395,228.6,394.9,228.6z M309.2,139.8c-2.3,0-4.1,1.8-4.1,4.1c0,2.3,1.8,4.1,4.1,4.1c0.6,0,1,0.4,1,1v29.4
					c0,0.6-0.4,1-1,1c-2.1-0.2-4,1.4-4.1,3.6c-0.2,2.1,1.4,4,3.6,4.1c0.2,0,0.4,0,0.6,0c0.6,0,1,0.4,1,1v30c0,0.6-0.4,1-1,1
					c-2.1-0.1-3.9,1.5-4,3.6c-0.1,2.1,1.5,3.9,3.6,4c0.1,0,0.3,0,0.4,0h85.7c2.1,0.1,3.9-1.5,4-3.6c0.1-2.1-1.5-3.9-3.6-4
					c-0.1,0-0.3,0-0.4,0c-0.6,0-1-0.4-1-1V188c0-0.6,0.4-1,1-1c2.1,0.2,4-1.4,4.1-3.6c0.2-2.1-1.4-4-3.6-4.1c-0.2,0-0.4,0-0.6,0
					c-0.6,0-1-0.4-1-1V149c0-0.6,0.4-1,1-1c2.3,0,4.1-1.8,4.1-4.1c0-2.3-1.8-4.1-4.1-4.1L309.2,139.8z"/>
			</g>
			<g id="_Group_7">
				<path id="_Compound_Path_4" d="M333.6,178h-17.9c-0.6,0-1-0.4-1-1v-26.2c0-0.6,0.4-1,1-1h17.9c0.6,0,1,0.4,1,1V177
					C334.6,177.6,334.2,178,333.6,178z M316.7,176h15.9v-24.2h-15.9V176z"/>
			</g>
			<g id="_Group_8">
				<path id="_Compound_Path_5" d="M361,178h-17.9c-0.6,0-1-0.4-1-1v-26.2c0-0.6,0.4-1,1-1H361c0.6,0,1,0.4,1,1V177
					C362,177.6,361.6,178,361,178z M344.1,176H360v-24.2h-15.9V176z"/>
			</g>
			<g id="_Group_9">
				<path id="_Compound_Path_6" d="M388.3,178h-17.8c-0.6,0-1-0.4-1-1v-26.2c0-0.6,0.4-1,1-1h17.9c0.6,0,1,0.4,1,1V177
					C389.3,177.6,388.9,178,388.3,178L388.3,178z M371.5,176h15.9v-24.2h-15.9V176z"/>
			</g>
			<g id="_Group_10">
				<path id="_Compound_Path_7" d="M333.6,216.8h-17.9c-0.6,0-1-0.4-1-1v-26.2c0-0.6,0.4-1,1-1h17.9c0.6,0,1,0.4,1,1v26.2
					C334.6,216.4,334.2,216.8,333.6,216.8z M316.7,214.8h15.9v-24.2h-15.9V214.8z"/>
			</g>
			<g id="_Group_11">
				<path id="_Compound_Path_8" d="M361,216.8h-17.9c-0.6,0-1-0.4-1-1v-26.2c0-0.6,0.4-1,1-1H361c0.6,0,1,0.4,1,1v26.2
					C362,216.4,361.5,216.8,361,216.8z M344.1,214.8H360v-24.2h-15.9L344.1,214.8z"/>
			</g>
			<g id="_Group_12">
				<path id="_Compound_Path_9" d="M388.3,216.8h-17.8c-0.6,0-1-0.4-1-1v-26.2c0-0.6,0.4-1,1-1h17.9c0.6,0,1,0.4,1,1v26.2
					C389.3,216.4,388.9,216.8,388.3,216.8z M371.4,214.8h15.9v-24.2h-15.9L371.4,214.8z"/>
			</g>
			<g id="_Group_13">
				<path id="_Path_24" d="M272.5,234.2h-205c-0.5,0.1-0.9,0.7-0.7,1.2c0.1,0.4,0.4,0.6,0.7,0.7h205c0.5,0.1,1.1-0.2,1.2-0.7
					c0.1-0.5-0.2-1.1-0.7-1.2C272.9,234.2,272.7,234.2,272.5,234.2z"/>
				<path id="_Path_25" d="M401,234.2h-40c-0.5,0.1-0.9,0.7-0.7,1.2c0.1,0.4,0.4,0.6,0.7,0.7h40c0.5,0.1,1.1-0.2,1.2-0.7
					c0.1-0.5-0.2-1.1-0.7-1.2C401.3,234.2,401.2,234.2,401,234.2z"/>
				<path id="_Path_26" d="M355.7,234.2h-72.1c-0.5-0.1-1.1,0.2-1.2,0.7c-0.1,0.5,0.2,1.1,0.7,1.2c0.2,0,0.3,0,0.5,0h72
					c0.5-0.1,0.9-0.7,0.7-1.2C356.3,234.6,356,234.3,355.7,234.2L355.7,234.2z"/>
				<path id="_Path_27" d="M60.9,234.2H6.3c-0.5,0.1-0.9,0.7-0.7,1.2c0.1,0.4,0.4,0.6,0.7,0.7h54.6c0.5,0.1,1.1-0.2,1.2-0.7
					c0.1-0.5-0.2-1.1-0.7-1.2C61.2,234.2,61,234.2,60.9,234.2z"/>
			</g>
			<g id="_Group_14">
				<path id="_Compound_Path_10" d="M212.7,228.2h-74c-0.6,0-1-0.4-1-1v-69.6c0-0.6,0.4-1,1-1h74c0.6,0,1,0.4,1,1v69.7
					C213.7,227.8,213.2,228.2,212.7,228.2z M139.7,226.3h72v-67.7h-72V226.3z"/>
			</g>
			<g id="_Group_15">
				<path id="_Compound_Path_11" d="M159.5,228.2h-11.9c-0.6,0-1-0.4-1-1v-33.8c0-0.6,0.4-1,1-1h11.9c0.6,0,1,0.4,1,1v33.8
					C160.5,227.8,160.1,228.2,159.5,228.2z M148.5,226.3h10v-31.9h-10V226.3z"/>
			</g>
			<g id="_Group_16">
				<path id="_Compound_Path_12" d="M181.7,228.2h-11.9c-0.6,0-1-0.4-1-1v-33.8c0-0.6,0.4-1,1-1h11.9c0.6,0,1,0.4,1,1v33.8
					C182.7,227.8,182.2,228.2,181.7,228.2z M170.7,226.3h10v-31.9h-10V226.3z"/>
			</g>
			<g id="_Group_17">
				<path id="_Compound_Path_13" d="M203.8,228.2h-11.9c-0.6,0-1-0.4-1-1v-33.8c0-0.6,0.4-1,1-1h11.9c0.6,0,1,0.4,1,1v33.8
					C204.8,227.8,204.4,228.2,203.8,228.2z M192.8,226.3h10v-31.9h-10V226.3z"/>
			</g>
			<g id="_Group_18">
				<path id="_Compound_Path_14" d="M134.7,228.2H71.9c-0.6,0-1-0.4-1-1V103.3c0-0.6,0.4-1,1-1h62.8c0.6,0,1,0.4,1,1v123.9
					C135.7,227.7,135.2,228.2,134.7,228.2z M72.8,226.2h60.9V104.3H72.8V226.2z"/>
			</g>
			<g id="_Group_19">
				<path id="_Compound_Path_15" d="M134.7,115.4H71.9c-0.6,0-1-0.4-1-1v-3.8c0-0.6,0.4-1,1-1h62.8c0.6,0,1,0.4,1,1v3.8
					C135.7,115,135.3,115.4,134.7,115.4z M72.8,113.4h60.9v-1.8H72.8V113.4z"/>
			</g>
			<g id="_Group_20">
				<path id="_Compound_Path_16" d="M90.1,141.7H79.3c-0.6,0-1-0.4-1-1v-10.8c-0.1-3.5,2.6-6.5,6.1-6.6c3.5-0.1,6.5,2.6,6.6,6.1
					c0,0.2,0,0.3,0,0.5v10.8C91,141.2,90.6,141.7,90.1,141.7z M80.2,139.8h8.8v-9.8c0-2.4-2-4.4-4.4-4.4c-2.4,0-4.4,2-4.4,4.4V139.8
					z"/>
			</g>
			<g id="_Group_21">
				<path id="_Compound_Path_17" d="M108.7,141.7H97.9c-0.6,0-1-0.4-1-1v-10.8c-0.1-3.5,2.6-6.5,6.1-6.6c3.5-0.1,6.5,2.6,6.6,6.1
					c0,0.2,0,0.3,0,0.5v10.8C109.6,141.2,109.2,141.7,108.7,141.7z M98.9,139.8h8.8v-9.8c0-2.4-2-4.4-4.4-4.4c-2.4,0-4.4,2-4.4,4.4
					c0,0,0,0,0,0L98.9,139.8z"/>
			</g>
			<g id="_Group_22">
				<path id="_Compound_Path_18" d="M127.3,141.7h-10.8c-0.6,0-1-0.4-1-1v-10.8c-0.1-3.5,2.6-6.5,6.1-6.6s6.5,2.6,6.6,6.1
					c0,0.2,0,0.3,0,0.5v10.8C128.3,141.2,127.8,141.7,127.3,141.7z M117.5,139.8h8.8v-9.8c0-2.4-2-4.4-4.4-4.4c-2.4,0-4.4,2-4.4,4.4
					c0,0,0,0,0,0L117.5,139.8z"/>
			</g>
			<g id="_Group_23">
				<path id="_Compound_Path_19" d="M90.1,166.2H79.3c-0.6,0-1-0.4-1-1v-10.8c-0.1-3.5,2.6-6.5,6.1-6.6c3.5-0.1,6.5,2.6,6.6,6.1
					c0,0.2,0,0.3,0,0.5v10.8C91,165.8,90.6,166.2,90.1,166.2z M80.2,164.3h8.8v-9.8c0-2.4-2-4.4-4.4-4.4c-2.4,0-4.4,2-4.4,4.4V164.3
					z"/>
			</g>
			<g id="_Group_24">
				<path id="_Compound_Path_20" d="M108.7,166.2H97.9c-0.6,0-1-0.4-1-1v-10.8c-0.1-3.5,2.6-6.5,6.1-6.6c3.5-0.1,6.5,2.6,6.6,6.1
					c0,0.2,0,0.3,0,0.5v10.8C109.6,165.8,109.2,166.2,108.7,166.2z M98.9,164.3h8.8v-9.8c0-2.4-2-4.4-4.4-4.4c-2.4,0-4.4,2-4.4,4.4
					c0,0,0,0,0,0L98.9,164.3z"/>
			</g>
			<g id="_Group_25">
				<path id="_Compound_Path_21" d="M127.3,166.2h-10.8c-0.6,0-1-0.4-1-1v-10.8c-0.1-3.5,2.6-6.5,6.1-6.6s6.5,2.6,6.6,6.1
					c0,0.2,0,0.3,0,0.5v10.8C128.3,165.8,127.8,166.2,127.3,166.2z M117.5,164.3h8.8v-9.8c0-2.4-2-4.4-4.4-4.4c-2.4,0-4.4,2-4.4,4.4
					L117.5,164.3z"/>
			</g>
			<g id="_Group_26">
				<path id="_Compound_Path_22" d="M90.1,190.7H79.3c-0.6,0-1-0.4-1-1V179c0-3.5,2.8-6.4,6.4-6.4c3.5,0,6.4,2.8,6.4,6.4
					c0,0,0,0,0,0v10.8C91,190.3,90.6,190.7,90.1,190.7z M80.2,188.7h8.8V179c0-2.4-2-4.4-4.4-4.4c-2.4,0-4.4,2-4.4,4.4V188.7z"/>
			</g>
			<g id="_Group_27">
				<path id="_Compound_Path_23" d="M108.7,190.7H97.9c-0.6,0-1-0.4-1-1V179c-0.1-3.5,2.6-6.5,6.1-6.6c3.5-0.1,6.5,2.6,6.6,6.1
					c0,0.2,0,0.3,0,0.5v10.8C109.6,190.3,109.2,190.7,108.7,190.7z M98.9,188.7h8.8V179c0-2.4-2-4.4-4.4-4.4c-2.4,0-4.4,2-4.4,4.4
					c0,0,0,0,0,0L98.9,188.7z"/>
			</g>
			<g id="_Group_28">
				<path id="_Compound_Path_24" d="M127.3,190.7h-10.8c-0.6,0-1-0.4-1-1V179c-0.1-3.5,2.6-6.5,6.1-6.6s6.5,2.6,6.6,6.1
					c0,0.2,0,0.3,0,0.5v10.8C128.2,190.3,127.8,190.7,127.3,190.7z M117.5,188.7h8.8V179c0-2.4-2-4.4-4.4-4.4c-2.4,0-4.4,2-4.4,4.4
					c0,0,0,0,0,0L117.5,188.7z"/>
			</g>
			<g id="_Group_29">
				<rect id="_Rectangle_21" x="80.5" y="197.1" class="st10" width="14.5" height="23.9"/>
				<path id="_Compound_Path_25" d="M95,221.9H80.5c-0.6,0-1-0.4-1-1v-23.8c0-0.6,0.4-1,1-1H95c0.6,0,1,0.4,1,1v23.9
					C96,221.5,95.5,221.9,95,221.9z M81.4,219.9h12.6V198H81.5L81.4,219.9z"/>
			</g>
			<g id="_Group_30">
				<rect id="_Rectangle_22" x="37.7" y="199.8" class="st10" width="16.5" height="27.1"/>
				<path id="_Compound_Path_26" d="M54.3,227.9H37.7c-0.6,0-1-0.4-1-1v-27.1c0-0.6,0.4-1,1-1h16.5c0.6,0,1,0.4,1,1v27.1
					C55.3,227.5,54.8,227.9,54.3,227.9z M38.7,225.9h14.6v-25.2H38.7V225.9z"/>
			</g>
			<g id="_Group_31">
				<rect id="_Rectangle_23" x="76.7" y="224.1" class="st10" width="22.3" height="3.1"/>
				<path id="_Compound_Path_27" d="M99,228.2H76.7c-0.6,0-1-0.4-1-1V224c0-0.6,0.4-1,1-1H99c0.6,0,1,0.4,1,1v3.1
					C100,227.7,99.6,228.2,99,228.2z M77.6,226.2H98V225H77.7L77.6,226.2z"/>
			</g>
			<g id="_Group_32">
				<rect id="_Rectangle_24" x="79.3" y="220.9" class="st10" width="17" height="3.1"/>
				<path id="_Compound_Path_28" d="M96.3,225h-17c-0.6,0-1-0.4-1-1v-3.1c0-0.6,0.4-1,1-1h17c0.6,0,1,0.4,1,1v3.1
					C97.3,224.6,96.8,225,96.3,225z M80.3,223.1h15v-1.2H80.2L80.3,223.1z"/>
			</g>
			<g id="_Group_33">
				<path id="_Compound_Path_29" class="st11" d="M266.7,127.9h-49.9c-0.4,0-0.7-0.2-0.9-0.5c-0.2-0.3-0.1-0.7,0.1-1l25-33.5
					c0.2-0.2,0.5-0.4,0.8-0.4c0.3,0,0.6,0.1,0.8,0.4l25,33.5c0.3,0.5,0.2,1.1-0.3,1.4C267.1,127.9,266.9,127.9,266.7,127.9
					L266.7,127.9z M218.7,126h46l-23-30.9L218.7,126z"/>
			</g>
			<g id="_Group_34">
				<path id="_Compound_Path_30" class="st11" d="M266.7,228.7h-49.9c-0.6,0-1-0.4-1-1V130c0-0.6,0.4-1,1-1h49.9c0.6,0,1,0.4,1,1
					v97.7C267.7,228.3,267.2,228.7,266.7,228.7C266.7,228.7,266.7,228.7,266.7,228.7z M217.7,226.8h48V131h-48V226.8z"/>
			</g>
			<g id="_Group_35">
				<path id="_Compound_Path_31" class="st11" d="M246.2,121.6h-8.9c-0.6,0-1-0.4-1-1v-4.5c0.1-3,2.7-5.3,5.7-5.2
					c2.8,0.1,5.1,2.4,5.2,5.2v4.5C247.1,121.2,246.7,121.6,246.2,121.6z M238.2,119.6h7v-3.5c0-1.9-1.6-3.5-3.5-3.5
					s-3.5,1.6-3.5,3.5V119.6z"/>
			</g>
			<g id="_Group_36">
				<path id="_Compound_Path_32" d="M67.8,180.4H24.2c-0.6,0-1-0.5-0.9-1.1c0-0.2,0.1-0.3,0.2-0.5l21.8-29.3
					c0.2-0.2,0.5-0.4,0.8-0.4c0.3,0,0.6,0.1,0.8,0.4l21.8,29.3c0.2,0.3,0.2,0.7,0.1,1C68.5,180.2,68.2,180.4,67.8,180.4z
					 M26.1,178.5h39.8L46,151.8L26.1,178.5z"/>
			</g>
			<g id="_Group_37">
				<path id="_Path_28" class="st10" d="M46,165.4c-2.1,0-3.9,1.7-3.9,3.9v3.9h7.8v-3.9C49.9,167.2,48.1,165.4,46,165.4z"/>
				<path id="_Compound_Path_33" d="M49.9,174.2h-7.8c-0.6,0-1-0.4-1-1v-3.9c0.1-2.7,2.4-4.8,5.1-4.6c2.5,0.1,4.5,2.1,4.6,4.6v3.9
					C50.8,173.7,50.4,174.2,49.9,174.2z M43.1,172.3h5.8v-2.9c0-1.6-1.3-2.9-2.9-2.9c-1.6,0-2.9,1.3-2.9,2.9c0,0,0,0,0,0V172.3z"/>
			</g>
			<g id="_Group_38">
				<path id="_Path_29" class="st10" d="M39.7,125.9c-1.6,0-2.8,1.3-2.8,2.8l0,0v2.8h5.7v-2.8C42.5,127.2,41.2,125.9,39.7,125.9z"/>
				<path id="_Compound_Path_34" class="st11" d="M42.5,132.5h-5.7c-0.6,0-1-0.4-1-1v-2.8c0.1-2.1,1.9-3.7,4-3.6
					c2,0.1,3.5,1.7,3.6,3.6v2.8C43.5,132.1,43,132.5,42.5,132.5z M37.8,130.6h3.7v-1.9c0.1-1-0.7-1.9-1.7-2c-1-0.1-1.9,0.7-2,1.7
					c0,0.1,0,0.2,0,0.3V130.6z"/>
			</g>
			<g id="_Group_39">
				<path id="_Compound_Path_35" class="st11" d="M237.2,175.5h-10.7c-0.6,0-1-0.4-1-1v-13c0-0.6,0.4-1,1-1h10.6c0.6,0,1,0.4,1,1v13
					C238.2,175,237.8,175.5,237.2,175.5z M227.5,173.5h8.7v-11.1h-8.7V173.5z"/>
			</g>
			<g id="_Group_40">
				<path id="_Compound_Path_36" class="st11" d="M256.9,175.5h-10.7c-0.6,0-1-0.4-1-1v-13c0-0.6,0.4-1,1-1h10.7c0.6,0,1,0.4,1,1v13
					C257.9,175,257.4,175.5,256.9,175.5z M247.2,173.5h8.7v-11.1h-8.7V173.5z"/>
			</g>
			<g id="_Group_41">
				<path id="_Compound_Path_37" class="st11" d="M237.2,154.4h-10.7c-0.6,0-1-0.4-1-1v-13c0-0.6,0.4-1,1-1h10.6c0.6,0,1,0.4,1,1v13
					C238.2,153.9,237.8,154.4,237.2,154.4z M227.5,152.4h8.7v-11.1h-8.7V152.4z"/>
			</g>
			<g id="_Group_42">
				<path id="_Compound_Path_38" class="st11" d="M256.9,154.4h-10.7c-0.6,0-1-0.4-1-1v-13c0-0.6,0.4-1,1-1h10.7c0.6,0,1,0.4,1,1v13
					C257.9,153.9,257.4,154.4,256.9,154.4z M247.2,152.4h8.7v-11.1h-8.7V152.4z"/>
			</g>
			<g id="_Group_43">
				<path id="_Compound_Path_39" class="st11" d="M237.2,196.6h-10.7c-0.6,0-1-0.4-1-1v-13c0-0.6,0.4-1,1-1h10.6c0.6,0,1,0.4,1,1v13
					C238.2,196.1,237.8,196.6,237.2,196.6z M227.5,194.6h8.7v-11.1h-8.7V194.6z"/>
			</g>
			<g id="_Group_44">
				<path id="_Compound_Path_40" class="st11" d="M256.9,196.6h-10.7c-0.6,0-1-0.4-1-1v-13c0-0.6,0.4-1,1-1h10.7c0.6,0,1,0.4,1,1v13
					C257.9,196.1,257.4,196.6,256.9,196.6z M247.2,194.6h8.7v-11.1h-8.7V194.6z"/>
			</g>
			<g id="_Group_45">
				<path id="_Path_30" class="st10" d="M241.7,206.1c-3.6,0-6.6,2.9-6.6,6.6l0,0v15.1h13.1v-15.1
					C248.3,209.1,245.3,206.1,241.7,206.1L241.7,206.1z"/>
				<path id="_Compound_Path_41" class="st11" d="M248.3,228.7h-13.1c-0.6,0-1-0.4-1-1v-15c0.3-4.1,3.9-7.3,8-7c3.7,0.3,6.7,3.2,7,7
					v15.1C249.1,228.3,248.8,228.7,248.3,228.7z M236.1,226.8h11.2v-14.1c0-3.1-2.5-5.6-5.6-5.6s-5.6,2.5-5.6,5.6l0,0V226.8z"/>
			</g>
			<g id="_Group_46">
				<path id="_Path_31" d="M9.9,226.9c-0.6,0-1-0.4-1-1v-57.6c0.1-0.5,0.7-0.9,1.2-0.7c0.4,0.1,0.6,0.4,0.7,0.7v57.6
					C10.8,226.4,10.4,226.8,9.9,226.9z"/>
			</g>
			<g id="_Group_47">
				<path id="_Path_32" d="M9.9,180c-0.3,0-0.5-0.1-0.7-0.3L4.5,175c-0.5-0.3-0.6-0.9-0.4-1.4s0.9-0.6,1.4-0.4
					c0.1,0.1,0.3,0.2,0.4,0.4l4.7,4.7c0.4,0.4,0.4,1,0,1.4C10.4,179.9,10.1,180,9.9,180z"/>
			</g>
			<g id="_Group_48">
				<path id="_Path_33" d="M9.9,188.8c-0.6,0-1-0.5-0.9-1.1c0-0.2,0.1-0.3,0.1-0.5l5.2-7.4c0.2-0.5,0.8-0.8,1.3-0.6
					c0.5,0.2,0.8,0.8,0.6,1.3c-0.1,0.1-0.1,0.3-0.3,0.4l-5.2,7.4C10.5,188.6,10.2,188.8,9.9,188.8z"/>
			</g>
			<g id="_Group_49">
				<g id="_Group_50">
					<path id="_Compound_Path_42" d="M10,204.3c-0.1,0-0.2,0-0.3,0c-0.3-0.1-6.8-1.9-9.1-11c-1.3-5.1-0.3-16.3,1-25S5.4,149,8,145.6
						c0.4-0.5,0.9-0.9,1.5-1.2c0.1-0.1,0.3-0.1,0.4-0.1h0.2c0.2,0,0.3,0,0.4,0.1c0.6,0.2,1.1,0.6,1.5,1.2c2.6,3.4,5,13.9,6.4,22.6
						s2.3,19.9,1,25c-2.3,9.1-8.9,10.9-9.1,11C10.1,204.2,10.1,204.2,10,204.3z M10,146.3c-0.3,0.2-0.5,0.5-0.7,0.8
						c-4.3,6.6-8.9,37.3-6.8,45.7c1.8,7.1,6.4,9.1,7.5,9.5c1.1-0.4,5.7-2.4,7.5-9.5c2.1-8.4-2.4-39.1-6.8-45.6
						C10.5,146.8,10.3,146.5,10,146.3L10,146.3z"/>
				</g>
			</g>
			<g id="_Group_51">
				<g id="_Group_52">
					<path id="_Path_34" d="M292.5,228.2c-0.6,0-1-0.4-1-1v-46.4c-0.1-0.5,0.2-1.1,0.7-1.2s1.1,0.2,1.2,0.7c0,0.2,0,0.3,0,0.5v46.4
						C293.4,227.7,293,228.2,292.5,228.2z"/>
				</g>
				<g id="_Group_53">
					<path id="_Path_35" d="M292.5,190.4c-0.3,0-0.5-0.1-0.7-0.3l-3.8-3.8c-0.4-0.4-0.4-1,0-1.4c0.4-0.4,1-0.4,1.4,0l3.8,3.8
						c0.4,0.4,0.3,1-0.1,1.4C292.9,190.3,292.7,190.4,292.5,190.4L292.5,190.4z"/>
				</g>
				<g id="_Group_54">
					<path id="_Path_36" d="M292.5,197.5c-0.6,0-1-0.5-0.9-1.1c0-0.2,0.1-0.3,0.1-0.5l4.2-6c0.2-0.5,0.8-0.8,1.3-0.6
						c0.5,0.2,0.8,0.8,0.6,1.3c-0.1,0.2-0.2,0.3-0.3,0.4l-4.2,6C293.1,197.4,292.8,197.5,292.5,197.5z"/>
				</g>
				<g id="_Group_55">
					<g id="_Group_56">
						<path id="_Compound_Path_43" d="M292.6,210c-0.1,0-0.2,0-0.3,0c-0.2-0.1-5.6-1.5-7.5-9s2.1-33.5,6-38.5c0.3-0.4,0.8-0.8,1.3-1
							c0.1-0.1,0.3-0.1,0.4-0.1h0.1c0.1,0,0.3,0,0.4,0.1c0.5,0.2,1,0.6,1.3,1c3.9,5,7.9,30.9,6,38.5s-7.3,8.9-7.5,9
							C292.8,210,292.7,210,292.6,210z M292.6,163.4c-0.9,0.7-2.9,5.1-4.7,15.9c-1.5,9.2-2,17.7-1.1,21.2c1.4,5.5,4.9,7.2,5.9,7.5
							c1-0.4,4.5-2,5.9-7.5c0.9-3.4,0.4-12-1.1-21.2C295.5,168.5,293.4,164,292.6,163.4L292.6,163.4z"/>
					</g>
				</g>
			</g>
			<g id="_Group_57">
				<g id="_Group_58">
					<path id="_Path_37" d="M278.5,236.6c-0.6,0-1-0.4-1-1v-25.1c-0.1-0.5,0.2-1.1,0.7-1.2s1.1,0.2,1.2,0.7c0,0.2,0,0.3,0,0.5v25.1
						C279.4,236.1,279,236.6,278.5,236.6z"/>
				</g>
				<g id="_Group_59">
					<path id="_Path_38" d="M278.5,216c-0.3,0-0.5-0.1-0.7-0.3l-2.5-2.4c-0.3-0.5-0.1-1.1,0.3-1.4c0.3-0.2,0.7-0.2,1,0l2.5,2.4
						c0.4,0.4,0.4,1,0,1.4C279,215.9,278.8,216,278.5,216z"/>
				</g>
				<g id="_Group_60">
					<path id="_Path_39" d="M278.5,220.4c-0.2,0-0.4-0.1-0.5-0.2c-0.4-0.3-0.6-0.9-0.3-1.4l2.9-4.4c0.2-0.5,0.8-0.8,1.3-0.6
						c0.5,0.2,0.8,0.8,0.6,1.3c-0.1,0.2-0.1,0.3-0.3,0.4l-2.9,4.4C279.1,220.3,278.8,220.4,278.5,220.4z"/>
				</g>
				<g id="_Group_61">
					<path id="_Compound_Path_44" d="M278.5,223.7c-5.4,0-9.9-4.4-9.9-9.9s4.4-9.9,9.9-9.9c5.4,0,9.9,4.4,9.9,9.9v0
						C288.4,219.3,284,223.7,278.5,223.7z M278.5,205.9c-4.4,0-7.9,3.5-7.9,7.9s3.5,7.9,7.9,7.9c4.4,0,7.9-3.5,7.9-7.9
						C286.4,209.5,282.9,205.9,278.5,205.9z"/>
				</g>
			</g>
			<g id="_Group_62">
				<path id="_Compound_Path_45" d="M67.8,228.2H24.2c-0.6,0-1-0.4-1-1v-47.7c0-0.6,0.4-1,1-1h43.6c0.6,0,1,0.4,1,1v47.7
					C68.8,227.8,68.4,228.2,67.8,228.2z M25.2,226.3h41.7v-45.8H25.2L25.2,226.3z"/>
			</g>
			<g id="_Group_63">
				<path id="_Path_40" d="M29.5,173.4c-0.6,0-1-0.4-1-1v-34.7c0-0.6,0.4-1,1-1h20.4c0.6,0,1,0.4,1,1V155c-0.1,0.5-0.7,0.9-1.2,0.8
					c-0.4-0.1-0.7-0.4-0.8-0.8v-16.4H30.4v33.8C30.4,172.9,30,173.3,29.5,173.4z"/>
			</g>
			<g id="_Group_64">
				<path id="_Compound_Path_46" d="M50.3,135.3H29c-0.6,0-1-0.5-1-1c0-0.1,0-0.2,0.1-0.3l10.7-22.8c0.2-0.3,0.5-0.6,0.9-0.6
					c0.4,0,0.7,0.2,0.9,0.6l10.7,22.8c0.1,0.3,0.1,0.7-0.1,0.9C51,135.1,50.7,135.3,50.3,135.3z M30.5,133.3h18.3l-9.1-19.5
					L30.5,133.3z"/>
			</g>
			<g id="_Group_65">
				<path id="_Compound_Path_47" d="M111.9,34.5H106l-6.1-10.9c-0.4-0.6-0.6-1.2-0.9-1.9c-1.8-5.5,1.2-11.4,6.7-13.2
					c5.5-1.8,11.4,1.2,13.2,6.7c0.7,2.1,0.7,4.4,0,6.6l0,0c-0.2,0.6-0.5,1.3-0.8,1.9L111.9,34.5z M106.8,33.2h4.3l5.7-10.2
					c0.3-0.5,0.5-1.1,0.7-1.6l0,0c0.3-0.9,0.5-1.9,0.4-2.8c0-5-4.1-9.1-9.1-9.1c-5,0-9.1,4.1-9.1,9.1c0,1,0.2,1.9,0.5,2.9
					c0.2,0.6,0.4,1.1,0.7,1.6L106.8,33.2z"/>
			</g>
			<g id="_Group_66">
				<path id="_Compound_Path_48" d="M111.1,40.9h-4.2c-0.4,0-0.7-0.3-0.7-0.7c0,0,0,0,0,0V36c0-0.4,0.3-0.7,0.7-0.7c0,0,0,0,0,0h4.2
					c0.4,0,0.7,0.3,0.7,0.7c0,0,0,0,0,0v4.3C111.8,40.6,111.5,40.9,111.1,40.9z M107.5,39.5h2.9v-2.9h-2.9V39.5z"/>
			</g>
			<g id="_Group_67">
				<path id="_Path_41" d="M108.1,34.5c-0.3,0-0.6-0.2-0.7-0.5c-0.3-1-0.8-2.1-1.3-3.4c-1.4-3.4-3.2-7.6-3.2-10.9
					c0-7.2,3.9-11.8,6-11.8s5.5,5.2,5.5,12.1c0,3.5-1.5,7.3-2.7,10.3c-0.5,1.3-1,2.6-1.3,3.6c-0.1,0.4-0.5,0.6-0.8,0.5
					c-0.4-0.1-0.6-0.5-0.5-0.9l0,0c0.4-1.3,0.8-2.5,1.3-3.8c1.2-3,2.6-6.5,2.6-9.8c0-6.8-3.3-10.7-4.2-10.7s-4.6,3.8-4.6,10.5
					c0,3,1.7,7.1,3.1,10.4c0.5,1.3,1,2.4,1.3,3.4c0.1,0.4-0.1,0.8-0.4,0.9c0,0,0,0,0,0C108.3,34.5,108.2,34.6,108.1,34.5z"/>
			</g>
			<g id="_Group_68">
				<path id="_Compound_Path_49" d="M165.5,66.4c-7.6,0-13.8-6.2-13.8-13.8s6.2-13.8,13.8-13.8c7.6,0,13.8,6.2,13.8,13.8
					C179.3,60.2,173.1,66.4,165.5,66.4z M165.5,40.2c-6.9,0-12.4,5.6-12.4,12.4S158.6,65,165.5,65c6.8,0,12.4-5.6,12.4-12.4
					C177.9,45.7,172.3,40.2,165.5,40.2z"/>
			</g>
		</g>
	</g>
</g>
</svg>
