<?xml version="1.0" encoding="utf-8"?>
<!-- Generator: Adobe Illustrator 22.1.0, SVG Export Plug-In . SVG Version: 6.00 Build 0)  -->
<svg version="1.1" id="Layer_1" xmlns="http://www.w3.org/2000/svg" xmlns:xlink="http://www.w3.org/1999/xlink" x="0px" y="0px"
	 viewBox="0 0 389.4 216.6" style="enable-background:new 0 0 389.4 216.6;" xml:space="preserve">
<style type="text/css">
	.st0{fill:#BEE2F7;}
	.st1{fill:#F0C72F;}
	.st2{fill:#2A221F;}
	.st3{fill:#3D3734;}
	.st4{fill:#D7D1B5;}
	.st5{fill:#BE464A;}
	.st6{fill:#9AB239;}
	.st7{fill:#FFFFFF;}
	.st8{fill:#2B292A;}
</style>
<title>ASpropAsset 1ciudad</title>
<g id="Layer_2_1_">
	<g id="Layer_1-2">
		<g id="_Group_">
			<path id="_Path_" class="st0" d="M177.7,56.3c0.7-4.7,5.1-8,9.8-7.3c3.9,0.6,6.9,3.7,7.3,7.6c0.8-0.2,1.7-0.4,2.5-0.4
				c4.8,0.2,8.6,4.2,8.4,9c-0.2,4.6-3.8,8.3-8.4,8.4h-19.3c-4.8,0.1-8.8-3.7-8.9-8.5S172.9,56.4,177.7,56.3z"/>
			<path id="_Path_2" class="st0" d="M261.9,78.5c-0.7-4.7-5.1-7.9-9.8-7.2c-3.9,0.6-6.9,3.7-7.3,7.6c-4.6-1.4-9.5,1.2-10.9,5.8
				c-1.4,4.6,1.2,9.5,5.8,10.9c0.8,0.3,1.7,0.4,2.6,0.4h19.3c4.8,0.1,8.8-3.7,8.9-8.5S266.7,78.6,261.9,78.5L261.9,78.5z"/>
			<path id="_Path_3" class="st0" d="M86,49.9c-0.7-4.5-4.9-7.6-9.3-6.9c-3.7,0.6-6.5,3.5-6.9,7.2c-4.4-1.3-9,1.2-10.4,5.6
				s1.2,9,5.6,10.4c0.8,0.2,1.6,0.3,2.4,0.3h18.3c4.6,0.1,8.4-3.5,8.5-8.1C94.2,53.8,90.6,50,86,49.9L86,49.9z"/>
			<g id="_Group_2">
				
					<ellipse id="_Path_4" transform="matrix(0.1602 -0.9871 0.9871 0.1602 238.506 342.7884)" class="st1" cx="320.7" cy="31.2" rx="11.4" ry="11.4"/>
			</g>
			<path id="_Path_5" class="st2" d="M372.4,135.3L337,111.9c-0.8-0.5-1.8-0.5-2.6,0L299,135.3c-1,0.7-1.3,2.1-0.6,3.1c0,0,0,0,0,0
				l0,0c0.7,1,2.1,1.3,3.1,0.6l34.2-22.6l34.2,22.6c1,0.7,2.4,0.4,3.1-0.6l0,0C373.7,137.4,373.4,136,372.4,135.3z"/>
			<path id="_Path_6" class="st2" d="M43.5,131.8l35.4-23.4c0.4-0.3,0.9-0.4,1.3-0.4c0.5,0,0.9,0.1,1.3,0.4l35.4,23.4
				c1,0.7,1.3,2.1,0.6,3.1l0,0c-0.7,1-2.1,1.3-3.1,0.6l-34.2-22.6L46,135.5c-1,0.7-2.4,0.4-3.1-0.6l0,0
				C42.2,133.9,42.5,132.5,43.5,131.8z"/>
			<path id="_Path_7" class="st3" d="M256.9,178l-25.4-16.8c-0.3-0.2-0.6-0.3-0.9-0.3c-0.3,0-0.7,0.1-0.9,0.3L204.2,178
				c-0.7,0.5-0.9,1.5-0.5,2.2c0,0,0,0,0,0l0,0c0.5,0.7,1.5,0.9,2.2,0.5c0,0,0,0,0,0l24.6-16.2l24.6,16.2c0.7,0.5,1.7,0.3,2.2-0.5
				c0,0,0,0,0,0l0,0C257.8,179.5,257.6,178.5,256.9,178z"/>
			<path id="_Path_8" class="st3" d="M182.1,192.6l-19.9-13.2c-0.2-0.1-0.5-0.2-0.8-0.2c-0.3,0-0.5,0.1-0.7,0.2l-20,13.2
				c-0.6,0.4-0.7,1.2-0.4,1.7c0,0,0,0,0,0l0,0c0.4,0.6,1.2,0.7,1.8,0.4l19.3-12.7l19.3,12.7c0.6,0.4,1.4,0.2,1.8-0.4l0,0
				C182.8,193.8,182.7,193,182.1,192.6z"/>
			<polygon id="_Path_9" class="st4" points="251.3,177 251.3,215.5 210.7,215.5 210.7,177 231.1,163.6 			"/>
			<polygon id="_Path_10" class="st1" points="368.4,178.1 368.4,216.6 304.3,216.6 304.3,178.4 			"/>
			<polygon id="_Path_11" class="st1" points="368.4,138.7 368.4,165.4 304.3,165.4 304.3,138.6 336.2,117.7 			"/>
			<polygon id="_Path_12" class="st5" points="113.4,134.3 113.4,217.5 49.3,217.5 49.3,133.8 81.2,112.7 			"/>
			<polygon id="_Path_13" class="st5" points="50.2,217.5 5.8,217.5 5.8,138.8 50.1,138.8 			"/>
			<g id="_Group_3">
				<path id="_Path_14" class="st6" d="M382.4,154.9L382.4,154.9z"/>
				<path id="_Path_15" class="st6" d="M382.5,154.9c-3.7,0.4-8.5,29.1-6.5,36.8c1.7,6.7,6.5,8,6.5,8s4.8-1.2,6.5-8
					C390.9,184,386.1,155.2,382.5,154.9z"/>
			</g>
			<g id="_Group_4">
				<path id="_Path_16" class="st6" d="M124.4,156.4L124.4,156.4z"/>
				<path id="_Path_17" class="st6" d="M124.4,156.4c-3.7,0.4-8.4,29-6.5,36.6c1.7,6.7,6.5,7.9,6.5,7.9s4.8-1.2,6.5-7.9
					C132.9,185.4,128.1,156.8,124.4,156.4z"/>
			</g>
			<circle id="_Path_18" class="st6" cx="134.7" cy="205.7" r="7.6"/>
			<polygon id="_Path_19" class="st3" points="257.3,177.4 282.1,177.4 273.7,149.8 188.3,149.8 179.9,177.4 204.6,177.4 
				230.8,160.1 			"/>
			<rect id="_Rectangle_" x="192.1" y="185.7" class="st0" width="10.8" height="16.1"/>
			<rect id="_Rectangle_2" x="259.5" y="185.7" class="st0" width="10.8" height="16.1"/>
			<rect id="_Rectangle_3" x="91.2" y="145.8" class="st7" width="12" height="20.1"/>
			<rect id="_Rectangle_4" x="75.2" y="145.8" class="st7" width="12" height="20.1"/>
			<rect id="_Rectangle_5" x="90.9" y="176.6" class="st7" width="12" height="20.1"/>
			<rect id="_Rectangle_6" x="74.9" y="176.6" class="st7" width="12" height="20.1"/>
			<rect id="_Rectangle_7" x="59.3" y="145.8" class="st7" width="12" height="20.1"/>
			<rect id="_Rectangle_8" x="59" y="176.6" class="st7" width="12" height="20.1"/>
			<polygon id="_Path_20" class="st4" points="144.4,216 144.4,193.6 162.2,181.7 180.2,193.6 180.2,216 			"/>
			<rect id="_Path_21" x="17.7" y="185.2" class="st7" width="19.5" height="32.4"/>
			<rect id="_Rectangle_9" x="13.3" y="147" class="st7" width="29" height="13.1"/>
			<rect id="_Rectangle_10" x="314.6" y="144.8" class="st7" width="10.8" height="10.8"/>
			<rect id="_Rectangle_11" x="347.2" y="144.8" class="st7" width="10.8" height="10.8"/>
			<path id="_Path_22" class="st7" d="M329.2,216.4v-26l0,0h-14.5l0,0v26H329.2z"/>
			<rect id="_Rectangle_12" x="339.3" y="185.3" class="st7" width="18.8" height="14.1"/>
			<rect id="_Path_23" x="223.4" y="191.8" class="st7" width="14.7" height="24.5"/>
			<rect id="_Path_24" x="150.4" y="198.3" class="st7" width="23.9" height="17.8"/>
			<circle id="_Path_25" class="st7" cx="80.9" cy="126.5" r="6"/>
			<circle id="_Path_26" class="st7" cx="230.7" cy="177" r="6"/>
			<circle id="_Path_27" class="st7" cx="335.7" cy="130.4" r="6"/>
			<g id="_Group_5">
				<path id="_Compound_Path_" d="M194.1,73.4h-19.3c-5.3,0-9.6-4.4-9.6-9.7c0-4.8,3.6-8.9,8.4-9.5c1.2-5.1,6.3-8.3,11.5-7.1
					c3.6,0.8,6.4,3.6,7.2,7.2c0.6-0.1,1.2-0.2,1.8-0.2c5.3,0.2,9.5,4.6,9.4,10C203.3,69.2,199.2,73.3,194.1,73.4z M183,48.6
					c-3.8,0-7,2.8-7.6,6.5l-0.1,0.8h-0.8c-4.3,0.1-7.8,3.7-7.7,8c0.1,4.3,3.7,7.8,8,7.7l0,0h19.3c4.3,0,7.8-3.5,7.8-7.8
					c0-4.3-3.5-7.8-7.8-7.8c-0.8,0-1.5,0.1-2.3,0.3l-1.1,0.3l-0.1-1.1C190.2,51.6,186.9,48.6,183,48.6z"/>
			</g>
			<g id="_Group_6">
				<path id="_Compound_Path_2" d="M258.2,94.3h-19.2c-5.3,0-9.7-4.3-9.7-9.7c0-5.3,4.3-9.7,9.7-9.7c0.6,0,1.2,0.1,1.8,0.2
					c1.1-5.2,6.2-8.4,11.4-7.3c3.6,0.8,6.4,3.6,7.2,7.2c5.3,0.7,9,5.5,8.4,10.8C267.1,90.6,263,94.2,258.2,94.3L258.2,94.3z
					 M238.9,76.8c-4.3,0-7.8,3.5-7.8,7.8c0,4.3,3.5,7.8,7.8,7.8h19.2c4.3,0,7.8-3.5,7.8-7.9c0-4.1-3.3-7.6-7.4-7.8h-0.8l-0.1-0.8
					c-0.6-4.2-4.6-7.1-8.8-6.5c-3.5,0.5-6.1,3.3-6.5,6.8l-0.1,1.1l-1.1-0.3C240.5,76.9,239.7,76.8,238.9,76.8L238.9,76.8z"/>
			</g>
			<g id="_Group_7">
				<path id="_Compound_Path_3" d="M82.9,66H64.6c-5.1,0-9.2-4.1-9.2-9.3c0-5.1,4.1-9.2,9.3-9.2c0.6,0,1.1,0.1,1.7,0.2
					c1.1-4.9,6-8,10.9-6.9c3.4,0.8,6.1,3.4,6.9,6.8c5.1,0.6,8.7,5.2,8,10.3C91.5,62.6,87.6,66,82.9,66L82.9,66z M64.6,49.4
					c-4.1,0-7.4,3.3-7.4,7.4c0,4.1,3.3,7.4,7.4,7.4h18.3c4.1,0,7.4-3.4,7.3-7.5c0-3.9-3.1-7.1-7-7.3h-0.8l-0.1-0.8
					c-0.6-4-4.3-6.7-8.3-6.1c-3.3,0.5-5.8,3.1-6.1,6.4L67.8,50l-1.1-0.3C66.1,49.5,65.3,49.4,64.6,49.4z"/>
			</g>
			<g id="_Group_8">
				<path id="_Path_28" d="M64.7,77c-0.5,0-0.9-0.4-0.9-0.9v-4.3c-0.1-0.5,0.3-1,0.8-1c0.5-0.1,1,0.3,1,0.8c0,0.1,0,0.1,0,0.2v4.3
					C65.6,76.6,65.2,77,64.7,77L64.7,77z"/>
			</g>
			<g id="_Group_9">
				<path id="_Path_29" d="M64.7,91.8c-0.5,0-0.9-0.4-0.9-0.9v-9.1c-0.1-0.5,0.3-1,0.8-1c0.5-0.1,1,0.3,1,0.8c0,0.1,0,0.1,0,0.2v9.1
					C65.6,91.3,65.2,91.8,64.7,91.8C64.7,91.8,64.7,91.8,64.7,91.8z"/>
			</g>
			<g id="_Group_10">
				<path id="_Path_30" d="M71.7,91.8c-0.5,0-0.9-0.4-0.9-0.9v-4.2c-0.1-0.5,0.3-1,0.8-1c0.5-0.1,1,0.3,1,0.8c0,0.1,0,0.1,0,0.2v4.3
					C72.6,91.4,72.2,91.8,71.7,91.8z"/>
			</g>
			<g id="_Group_11">
				<path id="_Path_31" d="M71.7,81.8c-0.5,0-0.9-0.4-0.9-0.9v-9.1c-0.1-0.5,0.3-1,0.8-1c0.5-0.1,1,0.3,1,0.8c0,0.1,0,0.1,0,0.2v9.1
					C72.6,81.4,72.2,81.8,71.7,81.8L71.7,81.8z"/>
			</g>
			<g id="_Group_12">
				<path id="_Path_32" d="M78.8,77c-0.5,0-0.9-0.4-0.9-0.9l0,0v-4.3c0-0.5,0.4-0.9,0.9-0.9s0.9,0.4,0.9,0.9v4.3
					C79.7,76.6,79.3,77,78.8,77L78.8,77z"/>
			</g>
			<g id="_Group_13">
				<path id="_Path_33" d="M78.8,91.8c-0.5,0-0.9-0.4-0.9-0.9v-9.1c0-0.5,0.4-0.9,0.9-0.9s0.9,0.4,0.9,0.9v9.1
					C79.7,91.3,79.3,91.8,78.8,91.8z"/>
			</g>
			<g id="_Group_14">
				<path id="_Path_34" d="M85.8,91.8c-0.5,0-0.9-0.4-0.9-0.9v-4.2c0-0.5,0.4-0.9,0.9-0.9s0.9,0.4,0.9,0.9v4.3
					C86.7,91.4,86.3,91.8,85.8,91.8z"/>
			</g>
			<g id="_Group_15">
				<path id="_Path_35" d="M85.8,81.8c-0.5,0-0.9-0.4-0.9-0.9l0,0v-9.1c0-0.5,0.4-0.9,0.9-0.9s0.9,0.4,0.9,0.9v9.1
					C86.7,81.4,86.3,81.8,85.8,81.8L85.8,81.8z"/>
			</g>
			<g id="_Group_16">
				<g id="_Group_17">
					<g id="_Group_18">
						<path id="_Path_36" class="st8" d="M330.9,28.9c0,6.2-5,11.2-11.2,11.2c-6.2,0-11.2-5-11.2-11.2c0-6.2,5-11.2,11.2-11.2
							C325.8,17.7,330.8,22.7,330.9,28.9c0,0.4,0.3,0.7,0.7,0.7s0.7-0.3,0.7-0.7c0-6.9-5.6-12.5-12.5-12.5
							c-6.9,0-12.5,5.6-12.5,12.5c0,3.6,1.6,7.1,4.3,9.5c5.2,4.5,13.1,4,17.7-1.2c2-2.3,3.1-5.2,3.1-8.2c0-0.4-0.3-0.7-0.7-0.7
							C331.1,28.2,330.9,28.5,330.9,28.9z"/>
					</g>
				</g>
				<g id="_Group_19">
					<g id="_Group_20">
						<g id="_Group_21">
							<path id="_Path_37" class="st8" d="M303.1,16.5l5.4,4.3c0.7,0.5,1.6-0.4,0.9-0.9l-5.4-4.3C303.3,15,302.4,15.9,303.1,16.5
								L303.1,16.5z"/>
						</g>
					</g>
					<g id="_Group_22">
						<g id="_Group_23">
							<path id="_Path_38" class="st8" d="M314.4,16c-1-2-2.1-4.1-3.1-6.1c-0.4-0.8-1.5-0.1-1.1,0.7c1,2,2.1,4.1,3.1,6.1
								C313.6,17.5,314.8,16.8,314.4,16z"/>
						</g>
					</g>
					<g id="_Group_24">
						<g id="_Group_25">
							<path id="_Path_39" class="st8" d="M299.7,34.1l6.8-1.5c0.8-0.2,0.5-1.5-0.4-1.3l-6.8,1.5C298.6,33,298.9,34.3,299.7,34.1z"
								/>
						</g>
					</g>
					<g id="_Group_26">
						<g id="_Group_27">
							<path id="_Path_40" class="st8" d="M306.5,25.2l-6.8-1.6c-0.8-0.2-1.2,1.1-0.4,1.3l6.8,1.5C307,26.6,307.4,25.3,306.5,25.2
								L306.5,25.2z"/>
						</g>
					</g>
					<g id="_Group_28">
						<g id="_Group_29">
							<path id="_Path_41" class="st8" d="M319,8.2v7.2c0,0.4,0.3,0.7,0.7,0.7s0.7-0.3,0.7-0.7V8.2c0-0.4-0.3-0.7-0.7-0.7
								S319,7.9,319,8.2z"/>
						</g>
					</g>
					<g id="_Group_30">
						<g id="_Group_31">
							<path id="_Path_42" class="st8" d="M326.2,16.7l2.9-6.1c0.4-0.8-0.8-1.4-1.1-0.7c-1,2-2,4.1-2.9,6.1
								C324.7,16.8,325.9,17.5,326.2,16.7L326.2,16.7z"/>
						</g>
					</g>
					<g id="_Group_32">
						<g id="_Group_33">
							<path id="_Path_43" class="st8" d="M304,42.2l5.4-4.3c0.7-0.5-0.3-1.5-0.9-0.9l-5.4,4.3C302.4,41.8,303.3,42.7,304,42.2z"/>
						</g>
					</g>
					<g id="_Group_34">
						<g id="_Group_35">
							<path id="_Path_44" class="st8" d="M339.9,32.8l-6.8-1.5c-0.8-0.2-1.2,1.1-0.4,1.3l6.8,1.5C340.4,34.3,340.8,33,339.9,32.8z"
								/>
						</g>
					</g>
					<g id="_Group_36">
						<g id="_Group_37">
							<path id="_Path_45" class="st8" d="M329.6,37.6l5.7,4.5c0.7,0.5,1.6-0.4,0.9-0.9l-5.7-4.5C329.9,36.1,329,37.1,329.6,37.6z"
								/>
						</g>
					</g>
					<g id="_Group_38">
						<g id="_Group_39">
							<path id="_Path_46" class="st8" d="M333.1,26.5l6.8-1.6c0.8-0.2,0.5-1.5-0.4-1.3l-6.8,1.6C331.9,25.4,332.3,26.7,333.1,26.5z
								"/>
						</g>
					</g>
					<g id="_Group_40">
						<g id="_Group_41">
							<path id="_Path_47" class="st8" d="M335.3,15.5l-5.4,4.3c-0.7,0.5,0.3,1.5,0.9,0.9l5.4-4.3C336.9,15.9,336,15,335.3,15.5z"/>
						</g>
					</g>
					<g id="_Group_42">
						<g id="_Group_43">
							<path id="_Path_48" class="st8" d="M329.2,47.1c-1-2.1-2.1-4.3-3.1-6.4c-0.4-0.8-1.5-0.1-1.1,0.7c1,2.1,2.1,4.3,3.1,6.4
								C328.4,48.5,329.5,47.9,329.2,47.1z"/>
						</g>
					</g>
					<g id="_Group_44">
						<g id="_Group_45">
							<path id="_Path_49" class="st8" d="M319,42.4v7.1c0,0.4,0.3,0.7,0.7,0.7s0.7-0.3,0.7-0.7v-7.1c0-0.4-0.3-0.7-0.7-0.7
								S319,42,319,42.4z"/>
						</g>
					</g>
					<g id="_Group_46">
						<g id="_Group_47">
							<path id="_Path_50" class="st8" d="M311.3,47.8l3.1-6.1c0.4-0.8-0.8-1.4-1.1-0.7l-3.1,6.1C309.8,47.9,310.9,48.5,311.3,47.8z
								"/>
						</g>
					</g>
				</g>
			</g>
			<g id="_Group_48">
				<path id="_Path_51" d="M254.5,222.4H138.8c-0.5-0.1-1,0.3-1,0.8c-0.1,0.5,0.3,1,0.8,1c0.1,0,0.1,0,0.2,0h115.7
					c0.5,0.1,1-0.3,1-0.8c0.1-0.5-0.3-1-0.8-1C254.6,222.4,254.6,222.4,254.5,222.4z"/>
				<path id="_Path_52" d="M126.3,222.4H1.8c-0.5-0.1-1,0.3-1,0.8c-0.1,0.5,0.3,1,0.8,1c0.1,0,0.1,0,0.2,0h124.5
					c0.5,0.1,1-0.3,1-0.8c0.1-0.5-0.3-1-0.8-1C126.4,222.4,126.3,222.4,126.3,222.4z"/>
				<path id="_Path_53" d="M386.9,222.4h-26.3c-0.5-0.1-1,0.3-1,0.8c-0.1,0.5,0.3,1,0.8,1c0.1,0,0.1,0,0.2,0h26.3
					c0.5,0.1,1-0.3,1-0.8c0.1-0.5-0.3-1-0.8-1C387.1,222.4,387,222.4,386.9,222.4z"/>
				<path id="_Path_54" d="M344.1,222.4h-51c-0.5-0.1-1,0.3-1,0.8c-0.1,0.5,0.3,1,0.8,1c0.1,0,0.1,0,0.2,0h51c0.5,0.1,1-0.3,1-0.8
					c0.1-0.5-0.3-1-0.8-1C344.2,222.4,344.1,222.4,344.1,222.4z"/>
			</g>
			<g id="_Group_49">
				<path id="_Compound_Path_4" d="M370.3,138.3c-0.6,0-1.2-0.2-1.8-0.5l-33.7-22.3l-33.7,22.3c-1.5,1-3.4,0.6-4.4-0.9
					c-1-1.5-0.6-3.4,0.9-4.4l0,0l35.4-23.4c1.1-0.7,2.5-0.7,3.7,0l35.3,23.4l0,0c1.5,1,1.9,2.9,0.9,4.4
					C372.3,137.8,371.3,138.3,370.3,138.3L370.3,138.3z M334.8,113.5c0.2,0,0.4,0.1,0.5,0.2l34.2,22.6c0.6,0.4,1.4,0.1,1.8-0.5
					c0.3-0.6,0.2-1.3-0.4-1.7l-35.4-23.4c-0.2-0.2-0.5-0.2-0.8-0.2h-0.1c-0.3,0-0.5,0.1-0.8,0.2l-35.4,23.4
					c-0.6,0.4-0.7,1.3-0.3,1.8c0.4,0.5,1.1,0.7,1.7,0.4l34.2-22.6C334.4,113.6,334.6,113.5,334.8,113.5z"/>
			</g>
			<g id="_Group_50">
				<path id="_Compound_Path_5" d="M254.9,180.1c-0.5,0-1-0.1-1.4-0.4l-24.1-15.9l-24.1,15.9c-0.6,0.4-1.3,0.5-1.9,0.4
					c-1.4-0.3-2.3-1.6-2-3c0.1-0.7,0.5-1.3,1.1-1.6l25.5-16.8c0.9-0.6,2-0.6,2.9,0l25.4,16.8c0.6,0.4,1,0.9,1.1,1.6
					c0.3,1.4-0.6,2.7-1.9,3c0,0-0.1,0-0.1,0C255.2,180.1,255,180.1,254.9,180.1z M229.3,160.1c-0.1,0-0.3,0-0.4,0.1L203.6,177
					c-0.2,0.1-0.3,0.3-0.3,0.4c0,0.2,0,0.4,0.1,0.5c0.2,0.3,0.6,0.4,0.9,0.2c0,0,0,0,0,0l24.6-16.2c0.3-0.2,0.7-0.2,1,0l24.6,16.2
					c0.2,0.1,0.3,0.1,0.5,0.1c0.2,0,0.3-0.1,0.4-0.3c0.2-0.3,0.1-0.7-0.2-0.9c0,0,0,0,0,0l-25.4-16.8
					C229.7,160.1,229.6,160.1,229.3,160.1L229.3,160.1L229.3,160.1z"/>
			</g>
			<g id="_Group_51">
				<path id="_Path_55" d="M366.7,164.9h-64.1c-0.5,0-0.9-0.4-0.9-0.9v-28.3c-0.1-0.5,0.3-1,0.8-1s1,0.3,1,0.8c0,0.1,0,0.1,0,0.2
					v27.4h62.3v-27.6c0-0.5,0.4-0.9,0.9-0.9c0.5,0,0.9,0.4,0.9,0.9c0,0,0,0,0,0V164C367.6,164.5,367.2,164.9,366.7,164.9z"/>
			</g>
			<g id="_Group_52">
				<path id="_Path_56" d="M366.7,216.1h-64.1c-0.5,0-0.9-0.4-0.9-0.9v-38.3c-0.1-0.5,0.3-1,0.8-1c0.5-0.1,1,0.3,1,0.8
					c0,0.1,0,0.1,0,0.2v37.4h62.3v-37.6c0-0.5,0.4-0.9,0.9-0.9c0.5,0,0.9,0.4,0.9,0.9v38.5C367.7,215.7,367.2,216.1,366.7,216.1z"/>
			</g>
			<g id="_Group_53">
				<path id="_Compound_Path_6" d="M334.7,136.4c-3.8,0-6.9-3.1-6.9-7s3.1-6.9,7-6.9c3.8,0,7,3.1,6.9,7c0,0,0,0,0,0
					C341.6,133.3,338.5,136.4,334.7,136.4z M334.7,124.4c-2.8,0-5.1,2.3-5.1,5.1c0,2.8,2.3,5.1,5.1,5.1s5.1-2.3,5.1-5.1l0,0
					C339.8,126.7,337.5,124.4,334.7,124.4C334.7,124.4,334.7,124.4,334.7,124.4L334.7,124.4z"/>
			</g>
			<g id="_Group_54">
				<path id="_Path_57" d="M334.7,136.4c-0.5,0-0.9-0.4-0.9-0.9v-12c-0.1-0.5,0.3-1,0.8-1c0.5-0.1,1,0.3,1,0.8c0,0.1,0,0.1,0,0.2v12
					C335.6,136,335.2,136.4,334.7,136.4z"/>
			</g>
			<g id="_Group_55">
				<path id="_Path_58" d="M340.6,130.4h-12c-0.5,0.1-1-0.3-1-0.8s0.3-1,0.8-1c0.1,0,0.1,0,0.2,0h12c0.5-0.1,1,0.3,1,0.8
					s-0.3,1-0.8,1C340.8,130.4,340.7,130.4,340.6,130.4z"/>
			</g>
			<g id="_Group_56">
				<path id="_Compound_Path_7" d="M229.5,183.3c-3.8,0-6.9-3.1-6.9-6.9c0-3.8,3.1-6.9,6.9-6.9c3.8,0,6.9,3.1,6.9,6.9
					C236.5,180.2,233.3,183.3,229.5,183.3C229.5,183.3,229.5,183.3,229.5,183.3z M229.5,171.3c-2.8,0-5.1,2.3-5.1,5.1
					c0,2.8,2.3,5.1,5.1,5.1c2.8,0,5.1-2.3,5.1-5.1c0,0,0,0,0,0C234.6,173.6,232.3,171.3,229.5,171.3
					C229.5,171.3,229.5,171.3,229.5,171.3L229.5,171.3z"/>
			</g>
			<g id="_Group_57">
				<path id="_Path_59" d="M229.5,183.3c-0.5,0-0.9-0.4-0.9-0.9v-12c-0.1-0.5,0.3-1,0.8-1c0.5-0.1,1,0.3,1,0.8c0,0.1,0,0.1,0,0.2v12
					C230.4,182.9,230,183.3,229.5,183.3z"/>
			</g>
			<g id="_Group_58">
				<path id="_Path_60" d="M235.5,177.3h-12c-0.5,0-0.9-0.4-0.9-0.9c0-0.5,0.4-0.9,0.9-0.9h12c0.5,0,0.9,0.4,0.9,0.9
					C236.4,176.9,236,177.3,235.5,177.3L235.5,177.3z"/>
			</g>
			<g id="_Group_59">
				<path id="_Compound_Path_8" d="M324,155.3h-10.8c-0.5,0-0.9-0.4-0.9-0.9v-10.8c0-0.5,0.4-0.9,0.9-0.9H324c0.5,0,0.9,0.4,0.9,0.9
					c0,0,0,0,0,0v10.8C324.9,154.9,324.5,155.3,324,155.3C324,155.3,324,155.3,324,155.3z M314.1,153.5h9v-9h-9V153.5z"/>
			</g>
			<g id="_Group_60">
				<path id="_Compound_Path_9" d="M356.6,155.3h-10.8c-0.5,0-0.9-0.4-0.9-0.9v-10.8c0-0.5,0.4-0.9,0.9-0.9h10.8
					c0.5,0,0.9,0.4,0.9,0.9v10.8C357.5,154.9,357.1,155.3,356.6,155.3z M346.8,153.5h8.9v-9h-8.9V153.5z"/>
			</g>
			<g id="_Group_61">
				<path id="_Compound_Path_10" d="M371.7,177.6h-74c-0.3,0-0.6-0.2-0.8-0.4c-0.2-0.2-0.2-0.6-0.1-0.9l4.8-12.7
					c0.1-0.4,0.5-0.6,0.9-0.6h64.4c0.4,0,0.7,0.2,0.9,0.6l4.8,12.7c0.2,0.5-0.1,1-0.6,1.2C371.8,177.6,371.7,177.6,371.7,177.6
					L371.7,177.6z M299,175.8h71.3l-4.1-10.9h-63.1L299,175.8z"/>
			</g>
			<g id="_Group_62">
				<path id="_Compound_Path_11" d="M327.8,216.1h-14.6c-0.5,0-0.9-0.4-0.9-0.9v-26c0-0.5,0.4-0.9,1-0.9h14.5c0.6,0,1,0.4,1,1v26
					C328.8,215.8,328.3,216.2,327.8,216.1z M314.2,214.3h12.7v-24.2h-12.7V214.3z"/>
			</g>
			<g id="_Group_63">
				<path id="_Compound_Path_12" d="M356.7,199.1h-18.8c-0.5,0-0.9-0.4-0.9-0.9v-14.1c0-0.5,0.4-0.9,0.9-0.9h18.8
					c0.5,0,0.9,0.4,0.9,0.9v14.1C357.7,198.7,357.3,199.1,356.7,199.1z M338.8,197.3h17V185h-17V197.3z"/>
			</g>
			<g id="_Group_64">
				<path id="_Path_61" d="M356.6,187.8h-18.7c-0.5,0-0.9-0.4-0.9-0.9c0-0.5,0.4-0.9,0.9-0.9h18.7c0.5,0,0.9,0.4,0.9,0.9
					C357.6,187.4,357.1,187.8,356.6,187.8z"/>
			</g>
			<g id="_Group_65">
				<path id="_Path_62" d="M324,147.1h-10.8c-0.5,0-0.9-0.4-0.9-0.9c0-0.5,0.4-0.9,0.9-0.9H324c0.5,0,0.9,0.4,0.9,0.9
					C324.9,146.7,324.5,147.1,324,147.1z"/>
			</g>
			<g id="_Group_66">
				<path id="_Path_63" d="M356.6,147.1h-10.8c-0.5,0-0.9-0.4-0.9-0.9c0-0.5,0.4-0.9,0.9-0.9h10.8c0.5,0,0.9,0.4,0.9,0.9
					C357.6,146.7,357.1,147.1,356.6,147.1z"/>
			</g>
			<g id="_Group_67">
				<path id="_Compound_Path_13" d="M140.4,194.5c-0.1,0-0.3,0-0.4,0c-0.6-0.1-1.1-0.5-1.4-1c-0.7-1-0.4-2.4,0.6-3.1l20.2-13.4
					c0.8-0.5,1.8-0.5,2.5,0l20.2,13.4l0,0c1,0.7,1.3,2,0.6,3.1c-0.7,1-2,1.3-3.1,0.6l-19.1-12.6l-19.1,12.6
					C141.3,194.4,140.9,194.5,140.4,194.5z M160.6,178.6c-0.1,0-0.1,0-0.2,0.1L140.2,192c-0.1,0.1-0.1,0.1-0.1,0.2
					c0,0.1,0,0.2,0,0.3c0,0.1,0.1,0.1,0.2,0.1c0.1,0,0.2,0,0.3-0.1l19.6-12.9c0.3-0.2,0.7-0.2,1,0l19.6,12.9
					c0.1,0.1,0.2,0.1,0.3,0.1c0.1,0,0.2-0.1,0.2-0.1c0.1-0.1,0.1-0.2,0.1-0.3c0-0.1-0.1-0.2-0.1-0.2l-20.2-13.4
					C160.9,178.6,160.8,178.6,160.6,178.6L160.6,178.6L160.6,178.6z"/>
			</g>
			<g id="_Group_68">
				<path id="_Compound_Path_14" d="M160.8,193c-1.9,0-3.4-1.5-3.4-3.5c0-1.9,1.5-3.4,3.4-3.4c1.9,0,3.4,1.5,3.4,3.5c0,0,0,0,0,0
					C164.2,191.5,162.7,193,160.8,193z M160.8,188c-0.9,0-1.6,0.7-1.6,1.6c0,0.9,0.7,1.6,1.6,1.6c0.9,0,1.6-0.7,1.6-1.6l0,0
					C162.4,188.7,161.7,188,160.8,188C160.8,188,160.8,188,160.8,188L160.8,188z"/>
			</g>
			<g id="_Group_69">
				<path id="_Path_64" d="M178.7,216h-35.8c-0.5,0-0.9-0.4-0.9-0.9v-22.7c0-0.5,0.4-0.9,0.9-0.9c0.5,0,0.9,0.4,0.9,0.9l0,0v21.8
					h33.9v-21.8c-0.1-0.5,0.3-1,0.8-1c0.5-0.1,1,0.3,1,0.8c0,0.1,0,0.1,0,0.2v22.7C179.6,215.6,179.2,216,178.7,216L178.7,216z"/>
			</g>
			<g id="_Group_70">
				<path id="_Path_65" d="M172.6,215.4c-0.5,0-0.9-0.4-0.9-0.9v-16.9h-22v16.9c0.1,0.5-0.3,1-0.8,1c-0.5,0.1-1-0.3-1-0.8
					c0-0.1,0-0.1,0-0.2v-17.8c0-0.5,0.4-0.9,0.9-0.9h23.9c0.5,0,0.9,0.4,0.9,0.9v17.8C173.6,215,173.2,215.4,172.6,215.4
					C172.7,215.4,172.6,215.4,172.6,215.4z"/>
			</g>
			<g id="_Group_71">
				<path id="_Path_66" d="M172.6,199.9h-23.9c-0.4,0-0.7-0.3-0.7-0.7s0.3-0.7,0.7-0.7h23.9c0.4,0,0.7,0.3,0.7,0.7
					S173,199.9,172.6,199.9z"/>
			</g>
			<g id="_Group_72">
				<path id="_Path_67" d="M172.6,202.6h-23.9c-0.4,0-0.7-0.3-0.7-0.7s0.3-0.7,0.7-0.7h23.9c0.4,0,0.7,0.3,0.7,0.7
					S173,202.6,172.6,202.6z"/>
			</g>
			<g id="_Group_73">
				<path id="_Path_68" d="M172.6,205.3h-23.9c-0.4,0-0.6-0.4-0.6-0.7c0-0.3,0.3-0.5,0.6-0.6h23.9c0.4,0,0.6,0.4,0.6,0.7
					C173.2,205,172.9,205.2,172.6,205.3z"/>
			</g>
			<g id="_Group_74">
				<path id="_Path_69" d="M172.6,207.9h-23.9c-0.4,0-0.6-0.4-0.6-0.7c0-0.3,0.3-0.5,0.6-0.6h23.9c0.4,0,0.6,0.4,0.6,0.7
					C173.2,207.7,172.9,207.9,172.6,207.9z"/>
			</g>
			<g id="_Group_75">
				<path id="_Path_70" d="M172.6,210.6h-23.9c-0.4,0-0.6-0.4-0.6-0.7c0-0.3,0.3-0.5,0.6-0.6h23.9c0.4,0,0.6,0.4,0.6,0.7
					C173.2,210.3,172.9,210.6,172.6,210.6z"/>
			</g>
			<g id="_Group_76">
				<path id="_Path_71" d="M172.6,213.3h-23.9c-0.4,0-0.6-0.4-0.6-0.7c0-0.3,0.3-0.5,0.6-0.6h23.9c0.4,0,0.6,0.4,0.6,0.7
					C173.2,213,172.9,213.2,172.6,213.3z"/>
			</g>
			<g id="_Group_77">
				<path id="_Path_72" d="M380.7,216.9c-0.5,0-0.9-0.4-0.9-0.9v-44.4c0-0.5,0.4-0.9,0.9-0.9c0.5,0,0.9,0.4,0.9,0.9c0,0,0,0,0,0V216
					C381.6,216.5,381.2,216.9,380.7,216.9L380.7,216.9z"/>
			</g>
			<g id="_Group_78">
				<path id="_Path_73" d="M380.7,180.8c-0.2,0-0.5-0.1-0.7-0.3l-3.6-3.6c-0.4-0.4-0.4-0.9,0-1.3c0.4-0.4,1-0.4,1.3,0l3.6,3.6
					c0.4,0.4,0.4,1,0,1.3C381.2,180.7,381,180.8,380.7,180.8z"/>
			</g>
			<g id="_Group_79">
				<path id="_Path_74" d="M380.7,187.5c-0.2,0-0.4-0.1-0.5-0.2c-0.4-0.3-0.5-0.9-0.2-1.3c0,0,0,0,0,0l4-5.7
					c0.3-0.4,0.9-0.5,1.3-0.2c0.4,0.3,0.5,0.9,0.2,1.3l-4,5.7C381.3,187.4,381,187.5,380.7,187.5z"/>
			</g>
			<g id="_Group_80">
				<g id="_Group_81">
					<path id="_Compound_Path_15" d="M380.8,199.5c-0.1,0-0.2,0-0.2,0c-0.2-0.1-5.4-1.5-7.2-8.6s2-32.1,5.7-36.9
						c0.3-0.4,0.7-0.8,1.2-1c0.1-0.1,0.3-0.1,0.4-0.1h0.1c0.1,0,0.3,0,0.4,0.1c0.5,0.2,0.9,0.6,1.2,1c3.7,4.8,7.6,29.6,5.7,36.9
						s-7,8.6-7.2,8.6C381,199.5,380.9,199.5,380.8,199.5z M380.8,154.8c-1,0.7-2.9,5.7-4.5,15.3c-1.5,8.8-1.9,17-1.1,20.3
						c1.4,5.3,4.7,6.9,5.6,7.2c0.9-0.4,4.3-1.9,5.6-7.2c0.8-3.3,0.4-11.5-1.1-20.3C383.7,160.5,381.8,155.5,380.8,154.8z"/>
				</g>
			</g>
			<g id="_Group_82">
				<path id="_Path_75" d="M122.7,218.2c-0.5,0-0.9-0.4-0.9-0.9V173c0-0.5,0.4-0.9,0.9-0.9s0.9,0.4,0.9,0.9v44.2
					C123.6,217.7,123.2,218.2,122.7,218.2L122.7,218.2z"/>
			</g>
			<g id="_Group_83">
				<path id="_Path_76" d="M122.7,182.2c-0.2,0-0.5-0.1-0.7-0.3l-3.6-3.6c-0.4-0.4-0.3-1,0-1.3c0.4-0.3,0.9-0.4,1.3,0l3.6,3.6
					c0.4,0.4,0.4,1,0,1.3C123.2,182.1,122.9,182.2,122.7,182.2z"/>
			</g>
			<g id="_Group_84">
				<path id="_Path_77" d="M122.7,188.9c-0.2,0-0.4-0.1-0.5-0.2c-0.4-0.3-0.5-0.9-0.2-1.3l4-5.7c0.3-0.4,0.9-0.5,1.3-0.2
					c0.4,0.3,0.5,0.9,0.2,1.3l0,0l-4,5.7C123.3,188.8,123,188.9,122.7,188.9z"/>
			</g>
			<g id="_Group_85">
				<g id="_Group_86">
					<path id="_Compound_Path_16" d="M122.8,200.8c-0.1,0-0.2,0-0.2,0c-0.2-0.1-5.3-1.5-7.2-8.6s2-32,5.7-36.7
						c0.3-0.4,0.7-0.8,1.2-1c0.1-0.1,0.3-0.1,0.4-0.1h0.2c0.1,0,0.3,0,0.4,0.1c0.5,0.2,0.9,0.6,1.2,1c3.7,4.8,7.5,29.5,5.7,36.7
						s-6.9,8.5-7.2,8.6C123,200.8,122.9,200.8,122.8,200.8z M122.8,156.3c-0.8,0.6-2.8,4.9-4.5,15.2c-1.5,8.8-1.9,16.9-1.1,20.2
						c1.3,5.3,4.7,6.8,5.6,7.2c0.9-0.3,4.3-1.9,5.6-7.2c0.8-3.3,0.4-11.4-1.1-20.2C125.6,161.2,123.6,157,122.8,156.3L122.8,156.3z"
						/>
				</g>
			</g>
			<g id="_Group_87">
				<path id="_Path_78" d="M249.7,215.9H209c-0.5,0-0.9-0.4-0.9-0.9v-38.5c-0.1-0.5,0.3-1,0.8-1c0.5-0.1,1,0.3,1,0.8
					c0,0.1,0,0.1,0,0.2V214h38.8v-37.6c-0.1-0.5,0.3-1,0.8-1c0.5-0.1,1,0.3,1,0.8c0,0.1,0,0.1,0,0.2V215
					C250.5,215.5,250.2,215.9,249.7,215.9z"/>
			</g>
			<g id="_Group_88">
				<path id="_Path_79" d="M280.6,176.9h-24.8c-0.5,0-0.9-0.4-0.9-0.9c0-0.5,0.4-0.9,0.9-0.9h23.6l-7.8-25.8h-84l-7.8,25.8h23.4
					c0.5,0,0.9,0.4,0.9,0.9c0,0.5-0.4,0.9-0.9,0.9l0,0h-24.6c-0.3,0-0.6-0.1-0.7-0.4c-0.2-0.2-0.2-0.5-0.1-0.8l8.4-27.6
					c0.1-0.4,0.5-0.7,0.9-0.7h85.4c0.4,0,0.8,0.3,0.9,0.7l8.4,27.6c0.1,0.3,0,0.6-0.1,0.8C281.2,176.7,280.9,176.9,280.6,176.9z"/>
			</g>
			<g id="_Group_89">
				<path id="_Path_80" d="M276.5,215.8h-94.4c-0.4,0-0.8-0.4-0.8-0.8l0,0v-39c0-0.4,0.4-0.8,0.9-0.7c0.4,0,0.7,0.3,0.7,0.7v38.2
					h92.8l0.2-38.2c0-0.4,0.4-0.8,0.8-0.8l0,0c0.4,0,0.8,0.4,0.8,0.8l0,0l-0.2,39C277.3,215.4,276.9,215.7,276.5,215.8
					C276.5,215.8,276.5,215.8,276.5,215.8z"/>
			</g>
			<g id="_Group_90">
				<path id="_Compound_Path_17" d="M236.7,215.9H222c-0.5,0-0.9-0.4-0.9-0.9c0,0,0,0,0,0v-24.5c0-0.5,0.4-0.9,0.9-0.9c0,0,0,0,0,0
					h14.7c0.5,0,0.9,0.4,0.9,0.9V215C237.6,215.5,237.2,215.9,236.7,215.9C236.7,215.9,236.7,215.9,236.7,215.9z M222.9,214h12.8
					v-22.7h-12.8L222.9,214z"/>
			</g>
			<g id="_Group_91">
				<path id="_Compound_Path_18" d="M201,201.6h-10.8c-0.5,0-0.9-0.4-0.9-0.9v-16.2c0-0.5,0.4-0.9,0.9-0.9c0,0,0,0,0,0H201
					c0.5,0,0.9,0.4,0.9,0.9c0,0,0,0,0,0v16.1C201.9,201.2,201.5,201.6,201,201.6C201,201.6,201,201.6,201,201.6z M191.1,199.7h9
					v-14.3h-9V199.7z"/>
			</g>
			<g id="_Group_92">
				<path id="_Compound_Path_19" d="M268.4,201.6h-10.8c-0.5,0-0.9-0.4-0.9-0.9v-16.2c0-0.5,0.4-0.9,0.9-0.9h10.8
					c0.5,0,0.9,0.4,0.9,0.9v16.1C269.3,201.2,268.9,201.6,268.4,201.6C268.4,201.6,268.4,201.6,268.4,201.6z M258.5,199.7h9v-14.3
					h-9V199.7z"/>
			</g>
			<g id="_Group_93">
				<path id="_Path_81" d="M308.3,127.5c-0.5,0-0.9-0.4-0.9-0.9v-13.3c0-0.5,0.4-0.9,0.9-0.9h9c0.5,0,0.9,0.4,0.9,0.9c0,0,0,0,0,0
					v7.4c-0.1,0.5-0.5,0.9-1,0.8c-0.4,0-0.8-0.4-0.8-0.8v-6.4h-7.2v12.4C309.2,127.1,308.8,127.5,308.3,127.5z"/>
			</g>
			<g id="_Group_94">
				<path id="_Compound_Path_20" d="M316.8,114.1h-8.1c-1.5,0-2.7-1.2-2.7-2.7l0,0c0-1.5,1.2-2.7,2.7-2.7h8.1c1.5,0,2.7,1.2,2.7,2.7
					l0,0C319.5,112.9,318.3,114.1,316.8,114.1z M308.6,110.5c-0.5,0-0.9,0.4-0.9,0.9c0,0,0,0,0,0l0,0c0,0.5,0.4,0.9,0.9,0.9l0,0h8.1
					c0.5,0,0.9-0.4,0.9-0.9c0,0,0,0,0,0l0,0c0-0.5-0.4-0.9-0.9-0.9l0,0H308.6z"/>
			</g>
			<g id="_Group_95">
				<path id="_Compound_Path_21" d="M298.5,215.9h-20.9c-0.5,0-0.9-0.4-0.9-0.9c0,0,0,0,0,0v-19.5c0-0.5,0.4-0.9,0.9-0.9
					c0,0,0,0,0,0h20.9c0.5,0,0.9,0.4,0.9,0.9c0,0,0,0,0,0V215C299.5,215.5,299.1,215.9,298.5,215.9
					C298.5,215.9,298.5,215.9,298.5,215.9z M278.6,214h19v-17.7h-19V214z"/>
			</g>
			<g id="_Group_96">
				<path id="_Path_82" d="M280.3,215.9c-0.5,0-0.9-0.4-0.9-0.9c0,0,0,0,0,0v-19.5c-0.1-0.5,0.3-1,0.8-1c0.5-0.1,1,0.3,1,0.8
					c0,0.1,0,0.1,0,0.2V215C281.2,215.5,280.8,215.9,280.3,215.9C280.3,215.9,280.3,215.9,280.3,215.9z"/>
			</g>
			<g id="_Group_97">
				<path id="_Path_83" d="M283.4,215.9c-0.5,0-0.9-0.4-0.9-0.9c0,0,0,0,0,0v-19.5c-0.1-0.5,0.3-1,0.8-1c0.5-0.1,1,0.3,1,0.8
					c0,0.1,0,0.1,0,0.2V215C284.3,215.5,283.9,215.9,283.4,215.9z"/>
			</g>
			<g id="_Group_98">
				<path id="_Path_84" d="M286.5,215.9c-0.5,0-0.9-0.4-0.9-0.9v-19.5c0-0.5,0.4-0.9,0.9-0.9c0.5,0,0.9,0.4,0.9,0.9c0,0,0,0,0,0V215
					C287.4,215.5,287,215.9,286.5,215.9z"/>
			</g>
			<g id="_Group_99">
				<path id="_Path_85" d="M289.6,215.9c-0.5,0-0.9-0.4-0.9-0.9v-19.5c0-0.5,0.4-0.9,0.9-0.9c0.5,0,0.9,0.4,0.9,0.9c0,0,0,0,0,0V215
					C290.5,215.5,290.1,215.9,289.6,215.9z"/>
			</g>
			<g id="_Group_100">
				<path id="_Path_86" d="M292.6,215.9c-0.5,0-0.9-0.4-0.9-0.9v-19.5c0-0.5,0.4-0.9,0.9-0.9c0.5,0,0.9,0.4,0.9,0.9V215
					C293.6,215.5,293.1,215.9,292.6,215.9z"/>
			</g>
			<g id="_Group_101">
				<path id="_Path_87" d="M295.7,215.9c-0.5,0-0.9-0.4-0.9-0.9v-19.5c-0.1-0.5,0.3-1,0.8-1c0.5-0.1,1,0.3,1,0.8c0,0.1,0,0.1,0,0.2
					V215C296.6,215.5,296.2,215.9,295.7,215.9C295.7,215.9,295.7,215.9,295.7,215.9z"/>
			</g>
			<g id="_Group_102">
				<path id="_Path_88" d="M133.1,224.2c-0.5,0-0.9-0.4-0.9-0.9v-21.6c0-0.5,0.4-0.9,0.9-0.9c0.5,0,0.9,0.4,0.9,0.9v21.6
					C134,223.8,133.6,224.2,133.1,224.2z"/>
			</g>
			<g id="_Group_103">
				<path id="_Path_89" d="M133.1,206.6c-0.2,0-0.5-0.1-0.6-0.3l-2.1-2.1c-0.4-0.4-0.3-1,0-1.3c0.4-0.3,0.9-0.4,1.3,0l2.1,2.1
					c0.4,0.4,0.4,0.9,0,1.3c0,0,0,0,0,0C133.6,206.5,133.3,206.6,133.1,206.6z"/>
			</g>
			<g id="_Group_104">
				<path id="_Path_90" d="M133.1,210.3c-0.2,0-0.4-0.1-0.5-0.2c-0.4-0.3-0.5-0.9-0.3-1.3l2.5-3.7c0.3-0.4,0.9-0.4,1.3-0.1
					c0.3,0.3,0.4,0.7,0.2,1.1l-2.5,3.7C133.7,210.2,133.4,210.3,133.1,210.3z"/>
			</g>
			<g id="_Group_105">
				<path id="_Compound_Path_22" d="M133.1,213.2c-4.7,0-8.6-3.8-8.6-8.5s3.8-8.6,8.5-8.6s8.6,3.8,8.6,8.5c0,0,0,0,0,0
					C141.6,209.3,137.8,213.2,133.1,213.2z M133.1,197.9c-3.7,0-6.7,3-6.7,6.7c0,3.7,3,6.7,6.7,6.7c3.7,0,6.7-3,6.7-6.7
					C139.8,200.9,136.8,198,133.1,197.9L133.1,197.9z"/>
			</g>
			<g id="_Group_106">
				<path id="_Compound_Path_23" d="M115,134.5c-0.6,0-1.2-0.2-1.7-0.5l-33.8-22.3L45.8,134c-1.5,0.9-3.5,0.4-4.4-1.1
					c-0.8-1.4-0.5-3.2,0.9-4.2l0,0l35.4-23.4c1.1-0.7,2.5-0.7,3.7,0l35.4,23.4c1.5,1,1.9,2.9,0.9,4.4C117,134,116,134.5,115,134.5
					L115,134.5z M43.3,130.2c-0.6,0.4-0.9,1.2-0.5,1.8c0.4,0.6,1.2,0.9,1.8,0.5c0,0,0.1-0.1,0.1-0.1L79,109.8c0.3-0.2,0.7-0.2,1,0
					l34.2,22.6c0.6,0.4,1.4,0.3,1.8-0.3s0.3-1.4-0.3-1.8c0,0-0.1-0.1-0.1-0.1l-35.4-23.4c-0.2-0.1-0.5-0.2-0.8-0.2h-0.1
					c-0.3,0-0.5,0.1-0.8,0.2L43.3,130.2z"/>
			</g>
			<g id="_Group_107">
				<path id="_Path_91" d="M111.7,216.3H47.6c-0.5,0-0.9-0.4-0.9-0.9c0,0,0,0,0,0v-83.7c0.1-0.5,0.5-0.9,1-0.8
					c0.4,0,0.8,0.4,0.8,0.8v82.8h62.3v-82.3c0.1-0.5,0.5-0.9,1-0.8c0.4,0,0.8,0.4,0.8,0.8v83.2C112.6,215.9,112.2,216.3,111.7,216.3
					C111.7,216.3,111.7,216.3,111.7,216.3z"/>
			</g>
			<g id="_Group_108">
				<path id="_Compound_Path_24" d="M79.6,132.6c-3.8,0-7-3.1-7-6.9s3.1-7,6.9-7c3.8,0,7,3.1,7,6.9c0,0,0,0,0,0
					C86.6,129.5,83.5,132.6,79.6,132.6C79.6,132.6,79.6,132.6,79.6,132.6z M79.6,120.6c-2.8,0-5.1,2.3-5.1,5.1s2.3,5.1,5.1,5.1
					s5.1-2.3,5.1-5.1l0,0C84.7,122.9,82.4,120.6,79.6,120.6z"/>
			</g>
			<g id="_Group_109">
				<path id="_Path_92" d="M79.6,132.6c-0.5,0-0.9-0.4-0.9-0.9l0,0v-12.1c0-0.5,0.4-0.9,0.9-0.9s0.9,0.4,0.9,0.9v12
					C80.6,132.1,80.2,132.6,79.6,132.6C79.7,132.6,79.6,132.6,79.6,132.6z"/>
			</g>
			<g id="_Group_110">
				<path id="_Path_93" d="M85.6,126.6h-12c-0.5,0.1-1-0.3-1-0.8c-0.1-0.5,0.3-1,0.8-1c0.1,0,0.1,0,0.2,0h12c0.5,0.1,0.9,0.5,0.8,1
					C86.4,126.2,86.1,126.6,85.6,126.6z"/>
			</g>
			<g id="_Group_111">
				<path id="_Compound_Path_25" d="M101.6,165.6h-12c-0.5,0-0.9-0.4-0.9-0.9v-20.2c0-0.5,0.4-0.9,0.9-0.9h12c0.5,0,0.9,0.4,0.9,0.9
					c0,0,0,0,0,0v20.1C102.6,165.1,102.2,165.6,101.6,165.6C101.7,165.6,101.7,165.6,101.6,165.6z M90.5,163.8h10.2v-18.3H90.5
					L90.5,163.8z"/>
			</g>
			<g id="_Group_112">
				<path id="_Path_94" d="M101.6,155.2h-12c-0.5,0-0.9-0.4-0.9-0.9c0-0.5,0.4-0.9,0.9-0.9h12c0.5,0,0.9,0.4,0.9,0.9
					C102.6,154.7,102.1,155.2,101.6,155.2z"/>
			</g>
			<g id="_Group_113">
				<path id="_Compound_Path_26" d="M85.6,165.6h-12c-0.5,0-0.9-0.4-0.9-0.9v-20.2c0-0.5,0.4-0.9,0.9-0.9h12c0.5,0,0.9,0.4,0.9,0.9
					v20.1C86.6,165.1,86.2,165.6,85.6,165.6C85.7,165.6,85.7,165.6,85.6,165.6z M74.5,163.8h10.2v-18.3H74.5L74.5,163.8z"/>
			</g>
			<g id="_Group_114">
				<path id="_Path_95" d="M85.6,155.2h-12c-0.5,0-0.9-0.4-0.9-0.9c0-0.5,0.4-0.9,0.9-0.9h12c0.5,0,0.9,0.4,0.9,0.9
					C86.6,154.7,86.1,155.2,85.6,155.2z"/>
			</g>
			<g id="_Group_115">
				<path id="_Compound_Path_27" d="M101.4,196.4h-12c-0.5,0-0.9-0.4-0.9-0.9v-20.2c0-0.5,0.4-0.9,0.9-0.9h12c0.5,0,0.9,0.4,0.9,0.9
					v20.1C102.3,195.9,101.9,196.4,101.4,196.4L101.4,196.4z M90.3,194.5h10.2v-18.3H90.3V194.5z"/>
			</g>
			<g id="_Group_116">
				<path id="_Path_96" d="M101.4,185.9h-12c-0.5,0.1-1-0.3-1-0.8c-0.1-0.5,0.3-1,0.8-1c0.1,0,0.1,0,0.2,0h12c0.5-0.1,1,0.3,1,0.8
					c0.1,0.5-0.3,1-0.8,1C101.5,186,101.4,186,101.4,185.9z"/>
			</g>
			<g id="_Group_117">
				<path id="_Compound_Path_28" d="M85.4,196.4h-12c-0.5,0-0.9-0.4-0.9-0.9v-20.2c0-0.5,0.4-0.9,0.9-0.9h12c0.5,0,0.9,0.4,0.9,0.9
					v20.1C86.3,195.9,85.9,196.4,85.4,196.4z M74.3,194.5h10.2v-18.3H74.3V194.5z"/>
			</g>
			<g id="_Group_118">
				<path id="_Path_97" d="M85.4,185.9h-12c-0.5,0.1-1-0.3-1-0.8c-0.1-0.5,0.3-1,0.8-1c0.1,0,0.1,0,0.2,0h12c0.5,0.1,0.9,0.5,0.8,1
					C86.2,185.6,85.8,185.9,85.4,185.9z"/>
			</g>
			<g id="_Group_119">
				<path id="_Compound_Path_29" d="M69.8,165.6h-12c-0.5,0-0.9-0.4-0.9-0.9c0,0,0,0,0,0v-20.2c0-0.5,0.4-0.9,0.9-0.9c0,0,0,0,0,0
					h12c0.5,0,0.9,0.4,0.9,0.9c0,0,0,0,0,0v20.1C70.7,165.1,70.4,165.6,69.8,165.6C69.8,165.6,69.8,165.6,69.8,165.6z M58.7,163.8
					h10.2v-18.3H58.7L58.7,163.8z"/>
			</g>
			<g id="_Group_120">
				<path id="_Path_98" d="M69.8,155.2h-12c-0.5,0-0.9-0.4-0.9-0.9c0-0.5,0.4-0.9,0.9-0.9h12c0.5,0,0.9,0.4,0.9,0.9
					C70.7,154.7,70.3,155.2,69.8,155.2z"/>
			</g>
			<g id="_Group_121">
				<path id="_Compound_Path_30" d="M69.5,196.4h-12c-0.5,0-0.9-0.4-0.9-0.9v-20.2c0-0.5,0.4-0.9,0.9-0.9h12c0.5,0,0.9,0.4,0.9,0.9
					v20.1C70.4,195.9,70,196.4,69.5,196.4L69.5,196.4z M58.4,194.5h10.2v-18.3H58.4V194.5z"/>
			</g>
			<g id="_Group_122">
				<path id="_Path_99" d="M69.5,185.9h-12c-0.5,0.1-1-0.3-1-0.8c-0.1-0.5,0.3-1,0.8-1c0.1,0,0.1,0,0.2,0h12c0.5-0.1,1,0.3,1,0.8
					c0.1,0.5-0.3,1-0.8,1C69.6,186,69.6,186,69.5,185.9z"/>
			</g>
			<g id="_Group_123">
				<path id="_Path_100" d="M47.6,137.6H0.9c-0.4,0-0.7-0.2-0.9-0.5c-0.2-0.3-0.1-0.7,0.2-1l24.2-28c0.2-0.2,0.4-0.3,0.7-0.3h49.1
					c0.5-0.1,1,0.3,1,0.8c0.1,0.5-0.3,1-0.8,1c-0.1,0-0.1,0-0.2,0H25.5L3,135.8h44.6c0.5,0.1,0.9,0.5,0.8,1
					C48.4,137.2,48,137.6,47.6,137.6L47.6,137.6z"/>
			</g>
			<g id="_Group_124">
				<path id="_Path_101" d="M47.6,216.3H3.1c-0.5,0-0.9-0.4-0.9-0.9v-78.7c-0.1-0.5,0.3-1,0.8-1c0.5-0.1,1,0.3,1,0.8
					c0,0.1,0,0.1,0,0.2v77.8h43.5c0.5,0.1,0.9,0.5,0.8,1C48.4,215.9,48,216.3,47.6,216.3L47.6,216.3z"/>
			</g>
			<g id="_Group_125">
				<path id="_Compound_Path_31" d="M35,216.3H15.5c-0.5,0-0.9-0.4-0.9-0.9V183c0-0.5,0.4-0.9,0.9-0.9H35c0.5,0,0.9,0.4,0.9,0.9
					v32.4C35.9,215.9,35.5,216.3,35,216.3C35,216.3,35,216.3,35,216.3z M16.5,214.5h17.6v-30.6H16.5L16.5,214.5z"/>
			</g>
			<g id="_Group_126">
				<path id="_Compound_Path_32" d="M40,158.6H11c-0.5,0-0.9-0.4-0.9-0.9c0,0,0,0,0,0v-13.2c0-0.5,0.4-0.9,0.9-0.9c0,0,0,0,0,0h29
					c0.5,0,0.9,0.4,0.9,0.9v13.1C41,158.1,40.6,158.6,40,158.6C40.1,158.6,40,158.6,40,158.6z M12,156.7h27.1v-11.3H12V156.7z"/>
			</g>
			<g id="_Group_127">
				<path id="_Path_102" d="M40,147.9H11c-0.5-0.1-0.9-0.5-0.8-1c0-0.4,0.4-0.8,0.8-0.8h29c0.5-0.1,1,0.3,1,0.8c0.1,0.5-0.3,1-0.8,1
					C40.1,147.9,40.1,147.9,40,147.9z"/>
			</g>
			<g id="_Group_128">
				<path id="_Path_103" d="M25.6,158.6c-0.5,0-0.9-0.4-0.9-0.9v-10.5c0-0.5,0.4-0.9,0.9-0.9s0.9,0.4,0.9,0.9v10.4
					C26.5,158.1,26.1,158.6,25.6,158.6C25.6,158.6,25.6,158.6,25.6,158.6z"/>
			</g>
		</g>
	</g>
</g>
</svg>
