<svg xmlns="http://www.w3.org/2000/svg" viewBox="0 0 389.41 216.61"><defs><style>.cls-1{fill:#bee2f7;}.cls-2{fill:#f0c72f;}.cls-3{fill:#2a221f;}.cls-4{fill:#3d3734;}.cls-5{fill:#d7d1b5;}.cls-6{fill:#be464a;}.cls-7{fill:#9ab239;}.cls-8{fill:#fff;}.cls-9{fill:#2b292a;}</style></defs><title>ASpropAsset 1ciudad</title><g id="Layer_2" data-name="Layer 2"><g id="Layer_1-2" data-name="Layer 1"><g id="_Group_" data-name="&lt;Group&gt;"><path id="_Path_" data-name="&lt;Path&gt;" class="cls-1" d="M177.69,48.7a8.62,8.62,0,0,1,17.1.36,8.92,8.92,0,0,1,2.54-.37,8.75,8.75,0,0,1,0,17.49H178.08a8.74,8.74,0,0,1-.39-17.48Z"/><path id="_Path_2" data-name="&lt;Path&gt;" class="cls-1" d="M261.92,70.87a8.63,8.63,0,0,0-17.11.36,8.75,8.75,0,1,0-2.53,17.12h19.25a8.74,8.74,0,0,0,.39-17.48Z"/><path id="_Path_3" data-name="&lt;Path&gt;" class="cls-1" d="M86,42.29a8.21,8.21,0,0,0-16.28.35,8.32,8.32,0,1,0-2.41,16.29H85.6A8.32,8.32,0,0,0,86,42.29Z"/><g id="_Group_2" data-name="&lt;Group&gt;"><circle id="_Path_4" data-name="&lt;Path&gt;" class="cls-2" cx="320.7" cy="23.62" r="11.43" transform="translate(246.01 336.39) rotate(-80.78)"/></g><path id="_Path_5" data-name="&lt;Path&gt;" class="cls-3" d="M372.4,127.69,337,104.33a2.56,2.56,0,0,0-2.65,0L299,127.69a2.24,2.24,0,0,0-.64,3.11h0a2.25,2.25,0,0,0,3.11.64l34.24-22.6,34.23,22.6a2.25,2.25,0,0,0,3.11-.64h0A2.25,2.25,0,0,0,372.4,127.69Z"/><path id="_Path_6" data-name="&lt;Path&gt;" class="cls-3" d="M43.47,124.19l35.39-23.36a2.21,2.21,0,0,1,1.32-.37,2.18,2.18,0,0,1,1.32.37l35.39,23.36a2.25,2.25,0,0,1,.64,3.11h0a2.25,2.25,0,0,1-3.11.64l-34.24-22.6L46,127.94a2.27,2.27,0,0,1-3.12-.64h0A2.25,2.25,0,0,1,43.47,124.19Z"/><path id="_Path_7" data-name="&lt;Path&gt;" class="cls-4" d="M256.85,170.44l-25.4-16.77a1.59,1.59,0,0,0-.95-.26,1.56,1.56,0,0,0-.95.26l-25.4,16.77a1.61,1.61,0,0,0-.46,2.23h0a1.61,1.61,0,0,0,2.23.46L230.5,156.9l24.57,16.23a1.61,1.61,0,0,0,2.23-.46h0A1.61,1.61,0,0,0,256.85,170.44Z"/><path id="_Path_8" data-name="&lt;Path&gt;" class="cls-4" d="M182.14,185,162.19,171.8a1.28,1.28,0,0,0-.75-.21,1.23,1.23,0,0,0-.74.21l-20,13.17a1.26,1.26,0,0,0-.35,1.75h0a1.27,1.27,0,0,0,1.75.36l19.3-12.74,19.3,12.74a1.27,1.27,0,0,0,1.75-.36h0A1.26,1.26,0,0,0,182.14,185Z"/><polygon id="_Path_9" data-name="&lt;Path&gt;" class="cls-5" points="251.3 169.41 251.3 207.92 210.69 207.92 210.69 169.41 231.06 155.99 251.3 169.41"/><polygon id="_Path_10" data-name="&lt;Path&gt;" class="cls-2" points="368.38 170.53 368.38 209.03 304.27 209.03 304.27 170.75 368.38 170.53"/><polygon id="_Path_11" data-name="&lt;Path&gt;" class="cls-2" points="368.38 131.08 368.38 157.84 304.27 157.84 304.27 131.02 336.2 110.07 368.38 131.08"/><polygon id="_Path_12" data-name="&lt;Path&gt;" class="cls-6" points="113.44 126.66 113.44 209.9 49.33 209.9 49.33 126.17 81.18 105.09 113.44 126.66"/><polygon id="_Path_13" data-name="&lt;Path&gt;" class="cls-6" points="50.21 209.9 5.78 209.9 5.78 131.19 50.13 131.19 50.21 209.9"/><g id="_Group_3" data-name="&lt;Group&gt;"><path id="_Path_14" data-name="&lt;Path&gt;" class="cls-7" d="M382.37,147.25h0Z"/><path id="_Path_15" data-name="&lt;Path&gt;" class="cls-7" d="M382.45,147.26c-3.67.37-8.47,29.1-6.52,36.78,1.7,6.71,6.52,8,6.52,8s4.81-1.24,6.51-8C390.91,176.36,386.11,147.63,382.45,147.26Z"/></g><g id="_Group_4" data-name="&lt;Group&gt;"><path id="_Path_16" data-name="&lt;Path&gt;" class="cls-7" d="M124.35,148.77h0Z"/><path id="_Path_17" data-name="&lt;Path&gt;" class="cls-7" d="M124.43,148.78c-3.65.37-8.43,29-6.49,36.6,1.69,6.68,6.49,7.92,6.49,7.92s4.79-1.24,6.48-7.92C132.85,177.75,128.08,149.15,124.43,148.78Z"/></g><circle id="_Path_18" data-name="&lt;Path&gt;" class="cls-7" cx="134.7" cy="198.06" r="7.62" transform="translate(-89.01 283.65) rotate(-76.72)"/><polygon id="_Path_19" data-name="&lt;Path&gt;" class="cls-4" points="257.25 169.81 282.07 169.81 273.69 142.16 188.3 142.16 179.91 169.81 204.55 169.81 230.83 152.51 257.25 169.81"/><rect id="_Rectangle_" data-name="&lt;Rectangle&gt;" class="cls-1" x="192.12" y="178.12" width="10.81" height="16.14"/><rect id="_Rectangle_2" data-name="&lt;Rectangle&gt;" class="cls-1" x="259.5" y="178.12" width="10.81" height="16.14"/><rect id="_Rectangle_3" data-name="&lt;Rectangle&gt;" class="cls-8" x="91.17" y="138.23" width="12.02" height="20.15" transform="translate(194.36 296.61) rotate(180)"/><rect id="_Rectangle_4" data-name="&lt;Rectangle&gt;" class="cls-8" x="75.17" y="138.23" width="12.02" height="20.15" transform="translate(162.36 296.61) rotate(180)"/><rect id="_Rectangle_5" data-name="&lt;Rectangle&gt;" class="cls-8" x="90.92" y="169.03" width="12.02" height="20.15" transform="translate(193.85 358.2) rotate(180)"/><rect id="_Rectangle_6" data-name="&lt;Rectangle&gt;" class="cls-8" x="74.91" y="169.03" width="12.02" height="20.15" transform="translate(161.85 358.2) rotate(180)"/><rect id="_Rectangle_7" data-name="&lt;Rectangle&gt;" class="cls-8" x="59.29" y="138.23" width="12.02" height="20.15" transform="translate(130.61 296.61) rotate(180)"/><rect id="_Rectangle_8" data-name="&lt;Rectangle&gt;" class="cls-8" x="59.04" y="169.03" width="12.02" height="20.15" transform="translate(130.1 358.2) rotate(180)"/><polygon id="_Path_20" data-name="&lt;Path&gt;" class="cls-5" points="144.39 208.4 144.39 185.95 162.21 174.05 180.18 185.95 180.18 208.4 144.39 208.4"/><rect id="_Path_21" data-name="&lt;Path&gt;" class="cls-8" x="17.7" y="177.6" width="19.48" height="32.44"/><rect id="_Rectangle_9" data-name="&lt;Rectangle&gt;" class="cls-8" x="13.25" y="139.39" width="28.95" height="13.14" transform="translate(55.46 291.91) rotate(180)"/><rect id="_Rectangle_10" data-name="&lt;Rectangle&gt;" class="cls-8" x="314.55" y="137.2" width="10.8" height="10.8"/><rect id="_Rectangle_11" data-name="&lt;Rectangle&gt;" class="cls-8" x="347.19" y="137.2" width="10.8" height="10.8"/><path id="_Path_22" data-name="&lt;Path&gt;" class="cls-8" d="M329.18,208.82v-26s0,0,0,0H314.64s0,0,0,0v26Z"/><rect id="_Rectangle_12" data-name="&lt;Rectangle&gt;" class="cls-8" x="339.27" y="177.67" width="18.84" height="14.11"/><rect id="_Path_23" data-name="&lt;Path&gt;" class="cls-8" x="223.38" y="184.19" width="14.69" height="24.54"/><rect id="_Path_24" data-name="&lt;Path&gt;" class="cls-8" x="150.35" y="190.71" width="23.87" height="17.78"/><circle id="_Path_25" data-name="&lt;Path&gt;" class="cls-8" cx="80.93" cy="118.87" r="6.02"/><circle id="_Path_26" data-name="&lt;Path&gt;" class="cls-8" cx="230.73" cy="169.41" r="6.02"/><circle id="_Path_27" data-name="&lt;Path&gt;" class="cls-8" cx="335.69" cy="122.78" r="6.02"/><g id="_Group_5" data-name="&lt;Group&gt;"><path id="_Compound_Path_" data-name="&lt;Compound Path&gt;" d="M194.09,65.81H174.84a9.68,9.68,0,0,1-1.17-19.28,9.56,9.56,0,0,1,18.64.09,10.52,10.52,0,0,1,1.78-.16,9.68,9.68,0,0,1,0,19.35ZM183,41a7.73,7.73,0,0,0-7.61,6.55l-.12.75-.76,0A7.82,7.82,0,0,0,174.84,64h19.25a7.82,7.82,0,0,0,0-15.64,8,8,0,0,0-2.27.34l-1.07.32-.12-1.11A7.68,7.68,0,0,0,183,41Z"/></g><g id="_Group_6" data-name="&lt;Group&gt;"><path id="_Compound_Path_2" data-name="&lt;Compound Path&gt;" d="M258.17,86.68H238.93a9.68,9.68,0,1,1,1.78-19.19,9.55,9.55,0,0,1,18.63-.09,9.68,9.68,0,0,1-1.17,19.28Zm-19.24-17.5a7.82,7.82,0,0,0,0,15.64h19.24a7.82,7.82,0,0,0,.35-15.63l-.76,0-.11-.76a7.7,7.7,0,0,0-15.27.33l-.11,1.11-1.08-.32A7.5,7.5,0,0,0,238.93,69.18Z"/></g><g id="_Group_7" data-name="&lt;Group&gt;"><path id="_Compound_Path_3" data-name="&lt;Compound Path&gt;" d="M82.92,58.42H64.61a9.25,9.25,0,1,1,1.66-18.35A9.13,9.13,0,0,1,84.07,40a9.25,9.25,0,0,1-1.15,18.43ZM64.61,41.77a7.4,7.4,0,0,0,0,14.8H82.92a7.4,7.4,0,0,0,.33-14.79l-.76,0L82.37,41a7.28,7.28,0,0,0-14.43.31l-.12,1.11-1.07-.32A7.4,7.4,0,0,0,64.61,41.77Z"/></g><g id="_Group_8" data-name="&lt;Group&gt;"><path id="_Path_28" data-name="&lt;Path&gt;" d="M64.69,69.39a.93.93,0,0,1-.92-.93V64.21a.93.93,0,1,1,1.85,0v4.25A.93.93,0,0,1,64.69,69.39Z"/></g><g id="_Group_9" data-name="&lt;Group&gt;"><path id="_Path_29" data-name="&lt;Path&gt;" d="M64.69,84.15a.92.92,0,0,1-.92-.92v-9.1a.93.93,0,1,1,1.85,0v9.1A.92.92,0,0,1,64.69,84.15Z"/></g><g id="_Group_10" data-name="&lt;Group&gt;"><path id="_Path_30" data-name="&lt;Path&gt;" d="M71.7,84.15a.92.92,0,0,1-.92-.92V79a.93.93,0,1,1,1.85,0v4.25A.92.92,0,0,1,71.7,84.15Z"/></g><g id="_Group_11" data-name="&lt;Group&gt;"><path id="_Path_31" data-name="&lt;Path&gt;" d="M71.7,74.24a.93.93,0,0,1-.92-.93v-9.1a.93.93,0,1,1,1.85,0v9.1A.93.93,0,0,1,71.7,74.24Z"/></g><g id="_Group_12" data-name="&lt;Group&gt;"><path id="_Path_32" data-name="&lt;Path&gt;" d="M78.79,69.39a.93.93,0,0,1-.93-.93V64.21a.93.93,0,0,1,1.86,0v4.25A.93.93,0,0,1,78.79,69.39Z"/></g><g id="_Group_13" data-name="&lt;Group&gt;"><path id="_Path_33" data-name="&lt;Path&gt;" d="M78.79,84.15a.93.93,0,0,1-.93-.92v-9.1a.93.93,0,1,1,1.86,0v9.1A.93.93,0,0,1,78.79,84.15Z"/></g><g id="_Group_14" data-name="&lt;Group&gt;"><path id="_Path_34" data-name="&lt;Path&gt;" d="M85.8,84.15a.93.93,0,0,1-.93-.92V79a.93.93,0,1,1,1.86,0v4.25A.93.93,0,0,1,85.8,84.15Z"/></g><g id="_Group_15" data-name="&lt;Group&gt;"><path id="_Path_35" data-name="&lt;Path&gt;" d="M85.8,74.24a.93.93,0,0,1-.93-.93v-9.1a.93.93,0,1,1,1.86,0v9.1A.93.93,0,0,1,85.8,74.24Z"/></g><g id="_Group_16" data-name="&lt;Group&gt;"><g id="_Group_17" data-name="&lt;Group&gt;"><g id="_Group_18" data-name="&lt;Group&gt;"><path id="_Path_36" data-name="&lt;Path&gt;" class="cls-9" d="M330.85,21.28a11.2,11.2,0,0,1-22.4,0,11.2,11.2,0,0,1,22.4,0,.66.66,0,0,0,1.32,0,12.53,12.53,0,1,0-20.75,9.44,12.53,12.53,0,0,0,20.75-9.44A.66.66,0,0,0,330.85,21.28Z"/></g></g><g id="_Group_19" data-name="&lt;Group&gt;"><g id="_Group_20" data-name="&lt;Group&gt;"><g id="_Group_21" data-name="&lt;Group&gt;"><path id="_Path_37" data-name="&lt;Path&gt;" class="cls-9" d="M303.08,8.87l5.37,4.32c.66.53,1.61-.4.94-.94L304,7.93c-.66-.53-1.6.41-.93.94Z"/></g></g><g id="_Group_22" data-name="&lt;Group&gt;"><g id="_Group_23" data-name="&lt;Group&gt;"><path id="_Path_38" data-name="&lt;Path&gt;" class="cls-9" d="M314.38,8.44c-1-2-2.07-4.06-3.1-6.1-.39-.76-1.53-.09-1.14.67q1.55,3.06,3.1,6.1c.38.76,1.53.09,1.14-.67Z"/></g></g><g id="_Group_24" data-name="&lt;Group&gt;"><g id="_Group_25" data-name="&lt;Group&gt;"><path id="_Path_39" data-name="&lt;Path&gt;" class="cls-9" d="M299.74,26.47l6.81-1.55c.84-.19.48-1.47-.35-1.28l-6.81,1.55c-.84.19-.48,1.47.35,1.28Z"/></g></g><g id="_Group_26" data-name="&lt;Group&gt;"><g id="_Group_27" data-name="&lt;Group&gt;"><path id="_Path_40" data-name="&lt;Path&gt;" class="cls-9" d="M306.53,17.57,299.74,16c-.83-.19-1.19,1.09-.35,1.28l6.79,1.55c.83.19,1.18-1.09.35-1.28Z"/></g></g><g id="_Group_28" data-name="&lt;Group&gt;"><g id="_Group_29" data-name="&lt;Group&gt;"><path id="_Path_41" data-name="&lt;Path&gt;" class="cls-9" d="M319,.64V7.82a.66.66,0,0,0,1.32,0V.64a.66.66,0,0,0-1.32,0Z"/></g></g><g id="_Group_30" data-name="&lt;Group&gt;"><g id="_Group_31" data-name="&lt;Group&gt;"><path id="_Path_42" data-name="&lt;Path&gt;" class="cls-9" d="M326.23,9.11,329.17,3c.37-.76-.78-1.44-1.15-.67q-1.47,3.06-2.93,6.1c-.37.77.77,1.44,1.14.67Z"/></g></g><g id="_Group_32" data-name="&lt;Group&gt;"><g id="_Group_33" data-name="&lt;Group&gt;"><path id="_Path_43" data-name="&lt;Path&gt;" class="cls-9" d="M304,34.56l5.38-4.29c.67-.53-.28-1.46-.94-.93l-5.37,4.29c-.67.53.27,1.46.93.93Z"/></g></g><g id="_Group_34" data-name="&lt;Group&gt;"><g id="_Group_35" data-name="&lt;Group&gt;"><path id="_Path_44" data-name="&lt;Path&gt;" class="cls-9" d="M339.92,25.19l-6.82-1.55c-.83-.19-1.18,1.09-.35,1.28l6.82,1.55c.83.19,1.18-1.09.35-1.28Z"/></g></g><g id="_Group_36" data-name="&lt;Group&gt;"><g id="_Group_37" data-name="&lt;Group&gt;"><path id="_Path_45" data-name="&lt;Path&gt;" class="cls-9" d="M329.62,30l5.67,4.52c.66.53,1.61-.4.94-.93l-5.67-4.53c-.66-.52-1.61.41-.94.94Z"/></g></g><g id="_Group_38" data-name="&lt;Group&gt;"><g id="_Group_39" data-name="&lt;Group&gt;"><path id="_Path_46" data-name="&lt;Path&gt;" class="cls-9" d="M333.1,18.86l6.82-1.56c.83-.19.48-1.47-.35-1.28l-6.82,1.56c-.83.19-.48,1.47.35,1.28Z"/></g></g><g id="_Group_40" data-name="&lt;Group&gt;"><g id="_Group_41" data-name="&lt;Group&gt;"><path id="_Path_47" data-name="&lt;Path&gt;" class="cls-9" d="M335.29,7.93l-5.41,4.32c-.67.54.27,1.47.93.94l5.42-4.32c.67-.53-.28-1.46-.94-.94Z"/></g></g><g id="_Group_42" data-name="&lt;Group&gt;"><g id="_Group_43" data-name="&lt;Group&gt;"><path id="_Path_48" data-name="&lt;Path&gt;" class="cls-9" d="M329.17,39.48c-1-2.14-2.07-4.29-3.1-6.43-.37-.77-1.51-.1-1.15.67,1,2.14,2.07,4.29,3.1,6.43.37.77,1.52.1,1.15-.67Z"/></g></g><g id="_Group_44" data-name="&lt;Group&gt;"><g id="_Group_45" data-name="&lt;Group&gt;"><path id="_Path_49" data-name="&lt;Path&gt;" class="cls-9" d="M319,34.76v7.1a.66.66,0,0,0,1.32,0v-7.1a.66.66,0,0,0-1.32,0Z"/></g></g><g id="_Group_46" data-name="&lt;Group&gt;"><g id="_Group_47" data-name="&lt;Group&gt;"><path id="_Path_50" data-name="&lt;Path&gt;" class="cls-9" d="M311.28,40.15l3.1-6.13c.38-.76-.76-1.43-1.14-.67l-3.1,6.13c-.39.77.76,1.44,1.14.67Z"/></g></g></g></g><g id="_Group_48" data-name="&lt;Group&gt;"><path id="_Path_51" data-name="&lt;Path&gt;" d="M254.51,214.76H138.83a.93.93,0,1,0,0,1.85H254.51a.93.93,0,1,0,0-1.85Z"/><path id="_Path_52" data-name="&lt;Path&gt;" d="M126.25,214.76H1.78a.93.93,0,1,0,0,1.85H126.25a.93.93,0,1,0,0-1.85Z"/><path id="_Path_53" data-name="&lt;Path&gt;" d="M386.94,214.76H360.69a.93.93,0,1,0,0,1.85h26.25a.93.93,0,1,0,0-1.85Z"/><path id="_Path_54" data-name="&lt;Path&gt;" d="M344.06,214.76H293.11a.93.93,0,1,0,0,1.85h50.95a.93.93,0,1,0,0-1.85Z"/></g><g id="_Group_49" data-name="&lt;Group&gt;"><path id="_Compound_Path_4" data-name="&lt;Compound Path&gt;" d="M370.26,130.72a3.22,3.22,0,0,1-1.75-.52l-33.72-22.27L301.06,130.2a3.17,3.17,0,0,1-3.49-5.3L333,101.54a3.48,3.48,0,0,1,3.66,0L372,124.9h0a3.17,3.17,0,0,1-1.75,5.82Zm-35.47-24.83a.93.93,0,0,1,.51.16l34.24,22.6a1.32,1.32,0,0,0,1.45-2.2L335.6,103.09a1.31,1.31,0,0,0-.77-.22h-.08a1.31,1.31,0,0,0-.77.22l-35.39,23.36a1.32,1.32,0,0,0,1.45,2.2l34.24-22.6A.93.93,0,0,1,334.79,105.89Z"/></g><g id="_Group_50" data-name="&lt;Group&gt;"><path id="_Compound_Path_5" data-name="&lt;Compound Path&gt;" d="M254.86,172.5a2.57,2.57,0,0,1-1.39-.42L229.4,156.19l-24.06,15.89a2.51,2.51,0,0,1-1.91.36,2.53,2.53,0,0,1-.89-4.6L228,151.07a2.73,2.73,0,0,1,2.91,0l25.41,16.77a2.49,2.49,0,0,1,1.08,1.61,2.51,2.51,0,0,1-2,3A2.37,2.37,0,0,1,254.86,172.5Zm-25.52-20a.65.65,0,0,0-.37.11l-25.4,16.77a.66.66,0,0,0-.3.43.7.7,0,0,0,.1.51.68.68,0,0,0,.95.2l24.57-16.22a.92.92,0,0,1,1,0l24.57,16.22a.7.7,0,0,0,.51.1.68.68,0,0,0,.44-.3.67.67,0,0,0-.2-.94l-25.4-16.77a.62.62,0,0,0-.4-.11h-.1Z"/></g><g id="_Group_51" data-name="&lt;Group&gt;"><path id="_Path_55" data-name="&lt;Path&gt;" d="M366.72,157.3H302.61a.93.93,0,0,1-.93-.92V128.07a.93.93,0,1,1,1.85,0v27.38h62.26V127.9a.93.93,0,1,1,1.86,0v28.48A.93.93,0,0,1,366.72,157.3Z"/></g><g id="_Group_52" data-name="&lt;Group&gt;"><path id="_Path_56" data-name="&lt;Path&gt;" d="M366.72,208.54H302.61a.93.93,0,0,1-.93-.93V169.33a.93.93,0,1,1,1.85,0v37.36h62.26V169.1a.93.93,0,0,1,1.86,0v38.51A.93.93,0,0,1,366.72,208.54Z"/></g><g id="_Group_53" data-name="&lt;Group&gt;"><path id="_Compound_Path_6" data-name="&lt;Compound Path&gt;" d="M334.66,128.83a6.95,6.95,0,1,1,6.95-6.94A7,7,0,0,1,334.66,128.83Zm0-12a5.09,5.09,0,1,0,5.09,5.09A5.1,5.1,0,0,0,334.66,116.8Z"/></g><g id="_Group_54" data-name="&lt;Group&gt;"><path id="_Path_57" data-name="&lt;Path&gt;" d="M334.66,128.83a.93.93,0,0,1-.92-.93v-12a.93.93,0,1,1,1.85,0v12A.93.93,0,0,1,334.66,128.83Z"/></g><g id="_Group_55" data-name="&lt;Group&gt;"><path id="_Path_58" data-name="&lt;Path&gt;" d="M340.63,122.81h-12a.93.93,0,1,1,0-1.85h12a.93.93,0,1,1,0,1.85Z"/></g><g id="_Group_56" data-name="&lt;Group&gt;"><path id="_Compound_Path_7" data-name="&lt;Compound Path&gt;" d="M229.5,175.7a6.94,6.94,0,1,1,6.95-6.94A6.94,6.94,0,0,1,229.5,175.7Zm0-12a5.09,5.09,0,1,0,5.09,5.09A5.1,5.1,0,0,0,229.5,163.67Z"/></g><g id="_Group_57" data-name="&lt;Group&gt;"><path id="_Path_59" data-name="&lt;Path&gt;" d="M229.5,175.7a.92.92,0,0,1-.92-.92v-12a.93.93,0,1,1,1.85,0v12A.93.93,0,0,1,229.5,175.7Z"/></g><g id="_Group_58" data-name="&lt;Group&gt;"><path id="_Path_60" data-name="&lt;Path&gt;" d="M235.47,169.69h-12a.93.93,0,0,1,0-1.86h12a.93.93,0,0,1,0,1.86Z"/></g><g id="_Group_59" data-name="&lt;Group&gt;"><path id="_Compound_Path_8" data-name="&lt;Compound Path&gt;" d="M324,147.72h-10.8a.93.93,0,0,1-.93-.92V136a.93.93,0,0,1,.93-.93H324a.92.92,0,0,1,.93.93v10.8A.92.92,0,0,1,324,147.72Zm-9.87-1.85h8.95v-9h-8.95Z"/></g><g id="_Group_60" data-name="&lt;Group&gt;"><path id="_Compound_Path_9" data-name="&lt;Compound Path&gt;" d="M356.62,147.72h-10.8a.93.93,0,0,1-.93-.92V136a.93.93,0,0,1,.93-.93h10.8a.93.93,0,0,1,.93.93v10.8A.93.93,0,0,1,356.62,147.72Zm-9.87-1.85h8.94v-9h-8.94Z"/></g><g id="_Group_61" data-name="&lt;Group&gt;"><path id="_Compound_Path_10" data-name="&lt;Compound Path&gt;" d="M371.65,170h-74a.94.94,0,0,1-.76-.4.92.92,0,0,1-.1-.85l4.77-12.73a.92.92,0,0,1,.87-.6h64.42a.94.94,0,0,1,.87.6l4.77,12.73a.93.93,0,0,1-.87,1.25ZM299,168.18h71.29l-4.07-10.88H303.1Z"/></g><g id="_Group_62" data-name="&lt;Group&gt;"><path id="_Compound_Path_11" data-name="&lt;Compound Path&gt;" d="M327.82,208.54H313.26a.93.93,0,0,1-.93-.93v-26a1,1,0,0,1,.95-.95h14.51a1,1,0,0,1,1,1v26A.93.93,0,0,1,327.82,208.54Zm-13.63-1.85h12.7V182.48h-12.7Z"/></g><g id="_Group_63" data-name="&lt;Group&gt;"><path id="_Compound_Path_12" data-name="&lt;Compound Path&gt;" d="M356.74,191.5H337.9a.93.93,0,0,1-.93-.93V176.46a.93.93,0,0,1,.93-.93h18.84a.93.93,0,0,1,.93.93v14.11A.93.93,0,0,1,356.74,191.5Zm-17.91-1.85h17V177.39h-17Z"/></g><g id="_Group_64" data-name="&lt;Group&gt;"><path id="_Path_61" data-name="&lt;Path&gt;" d="M356.62,180.21H337.9a.93.93,0,0,1,0-1.86h18.72a.93.93,0,1,1,0,1.86Z"/></g><g id="_Group_65" data-name="&lt;Group&gt;"><path id="_Path_62" data-name="&lt;Path&gt;" d="M324,139.51h-10.8a.93.93,0,1,1,0-1.86H324a.93.93,0,1,1,0,1.86Z"/></g><g id="_Group_66" data-name="&lt;Group&gt;"><path id="_Path_63" data-name="&lt;Path&gt;" d="M356.62,139.51h-10.8a.93.93,0,1,1,0-1.86h10.8a.93.93,0,1,1,0,1.86Z"/></g><g id="_Group_67" data-name="&lt;Group&gt;"><path id="_Compound_Path_13" data-name="&lt;Compound Path&gt;" d="M140.43,186.92a2.3,2.3,0,0,1-.45,0,2.16,2.16,0,0,1-1.4-1,2.21,2.21,0,0,1,.63-3.06l20.21-13.35a2.42,2.42,0,0,1,2.54,0l20.22,13.35h0a2.22,2.22,0,0,1,.62,3.06,2.21,2.21,0,0,1-3.06.63L160.69,174l-19.05,12.58A2.18,2.18,0,0,1,140.43,186.92ZM160.64,171a.31.31,0,0,0-.19.06l-20.22,13.35a.33.33,0,0,0-.15.23.3.3,0,0,0,0,.26.33.33,0,0,0,.22.15.36.36,0,0,0,.27-.05l19.56-12.91a.94.94,0,0,1,1,0L180.76,185a.36.36,0,0,0,.27.05.33.33,0,0,0,.22-.15.3.3,0,0,0,.05-.26.33.33,0,0,0-.15-.23l-20.22-13.35a.29.29,0,0,0-.2-.05h-.09Z"/></g><g id="_Group_68" data-name="&lt;Group&gt;"><path id="_Compound_Path_14" data-name="&lt;Compound Path&gt;" d="M160.76,185.4a3.45,3.45,0,1,1,3.45-3.44A3.45,3.45,0,0,1,160.76,185.4Zm0-5a1.59,1.59,0,1,0,1.59,1.59A1.59,1.59,0,0,0,160.76,180.37Z"/></g><g id="_Group_69" data-name="&lt;Group&gt;"><path id="_Path_64" data-name="&lt;Path&gt;" d="M178.66,208.39H142.87a.93.93,0,0,1-.93-.92V184.76a.93.93,0,1,1,1.86,0v21.78h33.93V184.76a.93.93,0,1,1,1.85,0v22.71A.92.92,0,0,1,178.66,208.39Z"/></g><g id="_Group_70" data-name="&lt;Group&gt;"><path id="_Path_65" data-name="&lt;Path&gt;" d="M172.63,207.79a.93.93,0,0,1-.93-.93V190h-22v16.85a.93.93,0,1,1-1.85,0V189.08a.92.92,0,0,1,.92-.92h23.88a.92.92,0,0,1,.92.92v17.78A.92.92,0,0,1,172.63,207.79Z"/></g><g id="_Group_71" data-name="&lt;Group&gt;"><path id="_Path_66" data-name="&lt;Path&gt;" d="M172.63,192.31H148.75a.66.66,0,0,1,0-1.32h23.88a.66.66,0,0,1,0,1.32Z"/></g><g id="_Group_72" data-name="&lt;Group&gt;"><path id="_Path_67" data-name="&lt;Path&gt;" d="M172.63,195H148.75a.66.66,0,0,1,0-1.32h23.88a.66.66,0,0,1,0,1.32Z"/></g><g id="_Group_73" data-name="&lt;Group&gt;"><path id="_Path_68" data-name="&lt;Path&gt;" d="M172.63,197.66H148.75a.67.67,0,0,1,0-1.33h23.88a.67.67,0,0,1,0,1.33Z"/></g><g id="_Group_74" data-name="&lt;Group&gt;"><path id="_Path_69" data-name="&lt;Path&gt;" d="M172.63,200.33H148.75a.67.67,0,0,1,0-1.33h23.88a.67.67,0,0,1,0,1.33Z"/></g><g id="_Group_75" data-name="&lt;Group&gt;"><path id="_Path_70" data-name="&lt;Path&gt;" d="M172.63,203H148.75a.67.67,0,0,1,0-1.33h23.88a.67.67,0,0,1,0,1.33Z"/></g><g id="_Group_76" data-name="&lt;Group&gt;"><path id="_Path_71" data-name="&lt;Path&gt;" d="M172.63,205.67H148.75a.67.67,0,0,1,0-1.33h23.88a.67.67,0,0,1,0,1.33Z"/></g><g id="_Group_77" data-name="&lt;Group&gt;"><path id="_Path_72" data-name="&lt;Path&gt;" d="M380.71,209.33a.93.93,0,0,1-.93-.93V164a.93.93,0,1,1,1.86,0V208.4A.93.93,0,0,1,380.71,209.33Z"/></g><g id="_Group_78" data-name="&lt;Group&gt;"><path id="_Path_73" data-name="&lt;Path&gt;" d="M380.71,173.15a.93.93,0,0,1-.66-.27l-3.64-3.64a.93.93,0,0,1,0-1.31.94.94,0,0,1,1.32,0l3.63,3.64a.93.93,0,0,1-.65,1.58Z"/></g><g id="_Group_79" data-name="&lt;Group&gt;"><path id="_Path_74" data-name="&lt;Path&gt;" d="M380.71,179.94a.86.86,0,0,1-.53-.17.92.92,0,0,1-.23-1.29l4-5.73a.92.92,0,1,1,1.52,1.05l-4,5.74A.93.93,0,0,1,380.71,179.94Z"/></g><g id="_Group_80" data-name="&lt;Group&gt;"><g id="_Group_81" data-name="&lt;Group&gt;"><path id="_Compound_Path_15" data-name="&lt;Compound Path&gt;" d="M380.81,191.89a.91.91,0,0,1-.23,0c-.22-.06-5.37-1.47-7.18-8.63s2-32.11,5.72-36.89a2.71,2.71,0,0,1,1.21-1,.91.91,0,0,1,.41-.09h.15a1,1,0,0,1,.41.09,2.77,2.77,0,0,1,1.21,1c3.72,4.78,7.57,29.61,5.72,36.89s-7,8.57-7.19,8.63A.85.85,0,0,1,380.81,191.89Zm0-44.69c-1,.72-2.91,5.7-4.52,15.28-1.5,8.83-1.93,17-1.1,20.3,1.35,5.28,4.71,6.87,5.62,7.21.94-.35,4.28-1.92,5.62-7.21.84-3.31.4-11.47-1.09-20.3C383.72,152.9,381.78,147.92,380.81,147.2Z"/></g></g><g id="_Group_82" data-name="&lt;Group&gt;"><path id="_Path_75" data-name="&lt;Path&gt;" d="M122.69,210.55a.93.93,0,0,1-.93-.93V165.4a.93.93,0,0,1,1.86,0v44.22A.93.93,0,0,1,122.69,210.55Z"/></g><g id="_Group_83" data-name="&lt;Group&gt;"><path id="_Path_76" data-name="&lt;Path&gt;" d="M122.69,174.55a.93.93,0,0,1-.66-.27l-3.62-3.62a.93.93,0,0,1,1.31-1.32l3.62,3.63a.93.93,0,0,1-.65,1.58Z"/></g><g id="_Group_84" data-name="&lt;Group&gt;"><path id="_Path_77" data-name="&lt;Path&gt;" d="M122.69,181.3a.94.94,0,0,1-.53-.16.93.93,0,0,1-.23-1.29l4-5.71a.92.92,0,1,1,1.52,1.05l-4,5.72A.94.94,0,0,1,122.69,181.3Z"/></g><g id="_Group_85" data-name="&lt;Group&gt;"><g id="_Group_86" data-name="&lt;Group&gt;"><path id="_Compound_Path_16" data-name="&lt;Compound Path&gt;" d="M122.79,193.19a.9.9,0,0,1-.23,0c-.22-.06-5.34-1.46-7.15-8.59s2-32,5.69-36.72a2.77,2.77,0,0,1,1.21-1,.91.91,0,0,1,.41-.09h.15a1,1,0,0,1,.41.09,2.77,2.77,0,0,1,1.21,1c3.7,4.76,7.53,29.47,5.69,36.72s-6.94,8.53-7.15,8.59A1,1,0,0,1,122.79,193.19Zm0-44.46c-.81.65-2.76,4.87-4.5,15.2-1.48,8.79-1.92,16.9-1.08,20.19,1.33,5.26,4.67,6.83,5.58,7.17.93-.34,4.25-1.9,5.59-7.17.83-3.29.4-11.4-1.09-20.19C125.55,153.6,123.6,149.38,122.79,148.73Z"/></g></g><g id="_Group_87" data-name="&lt;Group&gt;"><path id="_Path_78" data-name="&lt;Path&gt;" d="M249.65,208.28H209a.93.93,0,0,1-.93-.93v-38.5a.93.93,0,1,1,1.85,0v37.58h38.77V168.85a.93.93,0,1,1,1.85,0v38.5A.92.92,0,0,1,249.65,208.28Z"/></g><g id="_Group_88" data-name="&lt;Group&gt;"><path id="_Path_79" data-name="&lt;Path&gt;" d="M280.58,169.27H255.75a.93.93,0,0,1,0-1.86h23.58l-7.82-25.79h-84l-7.83,25.79h23.38a.93.93,0,1,1,0,1.86H178.42a.91.91,0,0,1-.74-.38.89.89,0,0,1-.14-.82l8.38-27.65a.93.93,0,0,1,.89-.66H272.2a.93.93,0,0,1,.88.66l8.39,27.65a1,1,0,0,1-.14.82A.94.94,0,0,1,280.58,169.27Z"/></g><g id="_Group_89" data-name="&lt;Group&gt;"><path id="_Path_80" data-name="&lt;Path&gt;" d="M276.47,208.15H182.09a.8.8,0,0,1-.8-.8v-39a.8.8,0,0,1,1.59,0v38.22h92.8l.16-38.22a.8.8,0,0,1,.8-.79h0a.79.79,0,0,1,.79.79l-.17,39A.79.79,0,0,1,276.47,208.15Z"/></g><g id="_Group_90" data-name="&lt;Group&gt;"><path id="_Compound_Path_17" data-name="&lt;Compound Path&gt;" d="M236.68,208.28H222a.92.92,0,0,1-.93-.93V182.81a.92.92,0,0,1,.93-.92h14.69a.93.93,0,0,1,.93.92v24.54A.93.93,0,0,1,236.68,208.28Zm-13.77-1.85h12.84V183.74H222.91Z"/></g><g id="_Group_91" data-name="&lt;Group&gt;"><path id="_Compound_Path_18" data-name="&lt;Compound Path&gt;" d="M201,194h-10.8a.93.93,0,0,1-.93-.93V176.92a.92.92,0,0,1,.93-.93H201a.92.92,0,0,1,.93.93v16.13A.93.93,0,0,1,201,194Zm-9.88-1.86h9V177.84h-9Z"/></g><g id="_Group_92" data-name="&lt;Group&gt;"><path id="_Compound_Path_19" data-name="&lt;Compound Path&gt;" d="M268.38,194H257.57a.93.93,0,0,1-.93-.93V176.92a.93.93,0,0,1,.93-.93h10.81a.93.93,0,0,1,.93.93v16.13A.93.93,0,0,1,268.38,194Zm-9.88-1.86h8.95V177.84H258.5Z"/></g><g id="_Group_93" data-name="&lt;Group&gt;"><path id="_Path_81" data-name="&lt;Path&gt;" d="M308.28,119.87a.93.93,0,0,1-.93-.93V105.62a.93.93,0,0,1,.93-.93h9a.92.92,0,0,1,.93.93V113a.93.93,0,0,1-1.85,0v-6.44H309.2v12.4A.93.93,0,0,1,308.28,119.87Z"/></g><g id="_Group_94" data-name="&lt;Group&gt;"><path id="_Compound_Path_20" data-name="&lt;Compound Path&gt;" d="M316.77,106.54h-8.14a2.74,2.74,0,0,1-2.74-2.74v0a2.74,2.74,0,0,1,2.74-2.74h8.14a2.74,2.74,0,0,1,2.74,2.74v0A2.74,2.74,0,0,1,316.77,106.54Zm-8.14-3.67a.89.89,0,0,0-.89.89v0a.89.89,0,0,0,.89.89h8.14a.89.89,0,0,0,.89-.89v0a.89.89,0,0,0-.89-.89Z"/></g><g id="_Group_95" data-name="&lt;Group&gt;"><path id="_Compound_Path_21" data-name="&lt;Compound Path&gt;" d="M298.54,208.28H277.67a.92.92,0,0,1-.92-.93v-19.5a.92.92,0,0,1,.92-.93h20.87a.92.92,0,0,1,.92.93v19.5A.92.92,0,0,1,298.54,208.28Zm-19.94-1.85h19V188.77h-19Z"/></g><g id="_Group_96" data-name="&lt;Group&gt;"><path id="_Path_82" data-name="&lt;Path&gt;" d="M280.31,208.28a.92.92,0,0,1-.92-.93v-19.5a.93.93,0,1,1,1.85,0v19.5A.92.92,0,0,1,280.31,208.28Z"/></g><g id="_Group_97" data-name="&lt;Group&gt;"><path id="_Path_83" data-name="&lt;Path&gt;" d="M283.39,208.28a.92.92,0,0,1-.92-.93v-19.5a.93.93,0,1,1,1.85,0v19.5A.93.93,0,0,1,283.39,208.28Z"/></g><g id="_Group_98" data-name="&lt;Group&gt;"><path id="_Path_84" data-name="&lt;Path&gt;" d="M286.47,208.28a.93.93,0,0,1-.93-.93v-19.5a.93.93,0,1,1,1.86,0v19.5A.93.93,0,0,1,286.47,208.28Z"/></g><g id="_Group_99" data-name="&lt;Group&gt;"><path id="_Path_85" data-name="&lt;Path&gt;" d="M289.55,208.28a.93.93,0,0,1-.93-.93v-19.5a.93.93,0,1,1,1.86,0v19.5A.93.93,0,0,1,289.55,208.28Z"/></g><g id="_Group_100" data-name="&lt;Group&gt;"><path id="_Path_86" data-name="&lt;Path&gt;" d="M292.63,208.28a.93.93,0,0,1-.93-.93v-19.5a.93.93,0,0,1,1.86,0v19.5A.93.93,0,0,1,292.63,208.28Z"/></g><g id="_Group_101" data-name="&lt;Group&gt;"><path id="_Path_87" data-name="&lt;Path&gt;" d="M295.71,208.28a.93.93,0,0,1-.93-.93v-19.5a.93.93,0,1,1,1.85,0v19.5A.92.92,0,0,1,295.71,208.28Z"/></g><g id="_Group_102" data-name="&lt;Group&gt;"><path id="_Path_88" data-name="&lt;Path&gt;" d="M133.07,216.61a.93.93,0,0,1-.93-.92V194.14a.93.93,0,1,1,1.86,0v21.55A.93.93,0,0,1,133.07,216.61Z"/></g><g id="_Group_103" data-name="&lt;Group&gt;"><path id="_Path_89" data-name="&lt;Path&gt;" d="M133.07,199a.91.91,0,0,1-.65-.27l-2.11-2.09a.93.93,0,0,1,1.31-1.32l2.1,2.09a.92.92,0,0,1,0,1.31A.9.9,0,0,1,133.07,199Z"/></g><g id="_Group_104" data-name="&lt;Group&gt;"><path id="_Path_90" data-name="&lt;Path&gt;" d="M133.07,202.74a.91.91,0,0,1-.52-.16.93.93,0,0,1-.25-1.29l2.52-3.74a.93.93,0,0,1,1.54,1l-2.52,3.74A.94.94,0,0,1,133.07,202.74Z"/></g><g id="_Group_105" data-name="&lt;Group&gt;"><path id="_Compound_Path_22" data-name="&lt;Compound Path&gt;" d="M133.07,205.57a8.55,8.55,0,1,1,8.54-8.54A8.55,8.55,0,0,1,133.07,205.57Zm0-15.23a6.69,6.69,0,1,0,6.69,6.69A6.7,6.7,0,0,0,133.07,190.34Z"/></g><g id="_Group_106" data-name="&lt;Group&gt;"><path id="_Compound_Path_23" data-name="&lt;Compound Path&gt;" d="M115,126.89a3.18,3.18,0,0,1-1.74-.52L79.49,104.11,45.77,126.37a3.18,3.18,0,0,1-3.5-5.3h0L77.66,97.71a3.5,3.5,0,0,1,3.67,0l35.39,23.36a3.17,3.17,0,0,1-1.76,5.82ZM43.3,122.62a1.32,1.32,0,1,0,1.45,2.2L79,102.22a1,1,0,0,1,1,0l34.23,22.6a1.32,1.32,0,1,0,1.45-2.2L80.31,99.26a1.33,1.33,0,0,0-.78-.21h-.07a1.33,1.33,0,0,0-.78.21Z"/></g><g id="_Group_107" data-name="&lt;Group&gt;"><path id="_Path_91" data-name="&lt;Path&gt;" d="M111.68,208.73H47.57a.92.92,0,0,1-.93-.93V124.07a.93.93,0,0,1,1.85,0v82.81h62.26V124.56a.93.93,0,0,1,1.85,0V207.8A.92.92,0,0,1,111.68,208.73Z"/></g><g id="_Group_108" data-name="&lt;Group&gt;"><path id="_Compound_Path_24" data-name="&lt;Compound Path&gt;" d="M79.62,125a6.95,6.95,0,1,1,6.94-6.94A6.94,6.94,0,0,1,79.62,125Zm0-12a5.09,5.09,0,1,0,5.09,5.09A5.09,5.09,0,0,0,79.62,113Z"/></g><g id="_Group_109" data-name="&lt;Group&gt;"><path id="_Path_92" data-name="&lt;Path&gt;" d="M79.62,125a.93.93,0,0,1-.93-.93V112a.93.93,0,0,1,1.86,0v12A.93.93,0,0,1,79.62,125Z"/></g><g id="_Group_110" data-name="&lt;Group&gt;"><path id="_Path_93" data-name="&lt;Path&gt;" d="M85.64,119h-12a.93.93,0,1,1,0-1.85h12a.93.93,0,0,1,0,1.85Z"/></g><g id="_Group_111" data-name="&lt;Group&gt;"><path id="_Compound_Path_25" data-name="&lt;Compound Path&gt;" d="M101.63,158h-12a.93.93,0,0,1-.93-.93V136.89a.93.93,0,0,1,.93-.93h12a.92.92,0,0,1,.93.93V157A.92.92,0,0,1,101.63,158Zm-11.09-1.85h10.17v-18.3H90.54Z"/></g><g id="_Group_112" data-name="&lt;Group&gt;"><path id="_Path_94" data-name="&lt;Path&gt;" d="M101.63,147.55h-12a.93.93,0,0,1,0-1.86h12a.93.93,0,0,1,0,1.86Z"/></g><g id="_Group_113" data-name="&lt;Group&gt;"><path id="_Compound_Path_26" data-name="&lt;Compound Path&gt;" d="M85.63,158h-12a.93.93,0,0,1-.93-.93V136.89a.93.93,0,0,1,.93-.93h12a.93.93,0,0,1,.93.93V157A.93.93,0,0,1,85.63,158Zm-11.09-1.85H84.7v-18.3H74.54Z"/></g><g id="_Group_114" data-name="&lt;Group&gt;"><path id="_Path_95" data-name="&lt;Path&gt;" d="M85.63,147.55h-12a.93.93,0,0,1,0-1.86h12a.93.93,0,0,1,0,1.86Z"/></g><g id="_Group_115" data-name="&lt;Group&gt;"><path id="_Compound_Path_27" data-name="&lt;Compound Path&gt;" d="M101.38,188.76h-12a.93.93,0,0,1-.93-.93V167.68a.93.93,0,0,1,.93-.93h12a.93.93,0,0,1,.93.93v20.15A.93.93,0,0,1,101.38,188.76Zm-11.1-1.86h10.17V168.61H90.28Z"/></g><g id="_Group_116" data-name="&lt;Group&gt;"><path id="_Path_96" data-name="&lt;Path&gt;" d="M101.38,178.34h-12a.93.93,0,1,1,0-1.85h12a.93.93,0,1,1,0,1.85Z"/></g><g id="_Group_117" data-name="&lt;Group&gt;"><path id="_Compound_Path_28" data-name="&lt;Compound Path&gt;" d="M85.38,188.76h-12a.93.93,0,0,1-.93-.93V167.68a.93.93,0,0,1,.93-.93h12a.93.93,0,0,1,.92.93v20.15A.93.93,0,0,1,85.38,188.76Zm-11.1-1.86H84.45V168.61H74.28Z"/></g><g id="_Group_118" data-name="&lt;Group&gt;"><path id="_Path_97" data-name="&lt;Path&gt;" d="M85.38,178.34h-12a.93.93,0,1,1,0-1.85h12a.93.93,0,0,1,0,1.85Z"/></g><g id="_Group_119" data-name="&lt;Group&gt;"><path id="_Compound_Path_29" data-name="&lt;Compound Path&gt;" d="M69.76,158h-12a.92.92,0,0,1-.93-.93V136.89a.92.92,0,0,1,.93-.93h12a.92.92,0,0,1,.92.93V157A.92.92,0,0,1,69.76,158Zm-11.1-1.85H68.83v-18.3H58.66Z"/></g><g id="_Group_120" data-name="&lt;Group&gt;"><path id="_Path_98" data-name="&lt;Path&gt;" d="M69.76,147.55h-12a.93.93,0,1,1,0-1.86h12a.93.93,0,0,1,0,1.86Z"/></g><g id="_Group_121" data-name="&lt;Group&gt;"><path id="_Compound_Path_30" data-name="&lt;Compound Path&gt;" d="M69.5,188.76h-12a.93.93,0,0,1-.93-.93V167.68a.93.93,0,0,1,.93-.93h12a.93.93,0,0,1,.93.93v20.15A.93.93,0,0,1,69.5,188.76ZM58.41,186.9H68.58V168.61H58.41Z"/></g><g id="_Group_122" data-name="&lt;Group&gt;"><path id="_Path_99" data-name="&lt;Path&gt;" d="M69.5,178.34h-12a.93.93,0,1,1,0-1.85h12a.93.93,0,1,1,0,1.85Z"/></g><g id="_Group_123" data-name="&lt;Group&gt;"><path id="_Path_100" data-name="&lt;Path&gt;" d="M47.57,130H.93a.94.94,0,0,1-.85-.54.92.92,0,0,1,.15-1l24.18-28a.92.92,0,0,1,.7-.32H74.25a.93.93,0,1,1,0,1.85H25.54L3,128.17H47.57a.93.93,0,0,1,0,1.85Z"/></g><g id="_Group_124" data-name="&lt;Group&gt;"><path id="_Path_101" data-name="&lt;Path&gt;" d="M47.57,208.73H3.14a.93.93,0,0,1-.93-.93V129.1a.93.93,0,1,1,1.85,0v77.78H47.57a.93.93,0,0,1,0,1.85Z"/></g><g id="_Group_125" data-name="&lt;Group&gt;"><path id="_Compound_Path_31" data-name="&lt;Compound Path&gt;" d="M35,208.73H15.52a.93.93,0,0,1-.93-.93V175.36a.93.93,0,0,1,.93-.93H35a.93.93,0,0,1,.93.93V207.8A.92.92,0,0,1,35,208.73Zm-18.54-1.85H34.07V176.29H16.45Z"/></g><g id="_Group_126" data-name="&lt;Group&gt;"><path id="_Compound_Path_32" data-name="&lt;Compound Path&gt;" d="M40,151h-29a.92.92,0,0,1-.92-.93V136.89a.92.92,0,0,1,.92-.93H40a.93.93,0,0,1,.93.93V150A.93.93,0,0,1,40,151ZM12,149.1H39.1V137.81H12Z"/></g><g id="_Group_127" data-name="&lt;Group&gt;"><path id="_Path_102" data-name="&lt;Path&gt;" d="M40,140.3h-29a.93.93,0,0,1,0-1.85H40a.93.93,0,1,1,0,1.85Z"/></g><g id="_Group_128" data-name="&lt;Group&gt;"><path id="_Path_103" data-name="&lt;Path&gt;" d="M25.55,151a.93.93,0,0,1-.93-.93V139.58a.93.93,0,1,1,1.86,0V150A.93.93,0,0,1,25.55,151Z"/></g></g></g></g></svg>